<?xml version="1.0" standalone="no"?>
<!DOCTYPE svg PUBLIC "-//W3C//DTD SVG 20010904//EN"
 "http://www.w3.org/TR/2001/REC-SVG-20010904/DTD/svg10.dtd">
<svg version="1.0" xmlns="http://www.w3.org/2000/svg"
 width="80.000000pt" height="60.000000pt" viewBox="0 0 80.000000 60.000000"
 preserveAspectRatio="xMidYMid meet">
<metadata>
Created by potrace 1.10, written by Peter Selinger 2001-2011
</metadata>
<g transform="translate(0.000000,60.000000) scale(0.100000,-0.100000)"
fill="#000000" stroke="none">
<path d="M373 565 c-14 -10 -23 -28 -25 -53 -2 -28 -8 -38 -23 -40 -69 -11
-159 -87 -192 -162 -8 -19 -19 -44 -25 -56 -5 -11 -8 -39 -6 -63 l3 -42 305 0
305 0 3 47 c2 27 -2 59 -9 73 -6 15 -19 41 -28 59 -29 61 -123 134 -186 144
-15 2 -21 12 -23 40 -3 38 -30 68 -62 68 -9 0 -25 -7 -37 -15z m61 -41 c10
-27 7 -34 -18 -34 -30 0 -42 16 -26 35 16 20 36 19 44 -1z m35 -85 c63 -20 84
-33 126 -75 53 -54 65 -70 65 -88 0 -8 5 -18 10 -21 6 -3 10 -19 10 -36 l0
-29 -254 0 c-140 0 -261 -3 -270 -6 -12 -5 -16 1 -16 24 0 17 4 34 10 37 5 3
10 13 10 21 0 49 122 164 174 164 14 0 28 5 31 10 8 13 60 13 104 -1z"/>
<path d="M400 103 c-202 -2 -338 -7 -344 -13 -26 -26 21 -31 357 -33 287 -2
348 0 352 12 5 14 -12 43 -24 39 -3 -2 -157 -4 -341 -5z"/>
</g>
</svg>
