
<svg version="1.0" xmlns="http://www.w3.org/2000/svg"
 width="60.000000pt" height="60.000000pt" viewBox="0 0 60.000000 60.000000"
 preserveAspectRatio="xMidYMid meet" color="#b91c1c">
<metadata>
Created by potrace 1.10, written by Peter Selinger 2001-2011
</metadata>
<g transform="translate(0.000000,60.000000) scale(0.100000,-0.100000)"
 >
<path stroke="none" fill="currentColor" d="M143 523 c-58 -33 -78 -70 -77 -140 l1 -63 -30 0 c-22 0 -28 -4 -23
-16 3 -9 6 -18 6 -20 0 -2 45 -4 100 -4 89 0 100 2 110 20 6 11 17 20 25 20
14 0 16 -8 19 -65 2 -31 32 -30 50 2 8 15 19 36 22 46 5 14 14 18 35 13 16 -3
32 0 38 8 15 18 3 26 -41 26 -31 0 -41 -5 -50 -25 -17 -37 -32 -25 -42 34 -11
59 -34 67 -51 16 -17 -50 -24 -55 -74 -55 -42 0 -49 3 -59 25 -17 37 -15 63 9
102 40 64 102 79 163 38 44 -30 42 -30 73 -5 79 62 185 12 186 -88 1 -64 -26
-106 -114 -182 -102 -88 -97 -87 -165 -35 -35 28 -61 42 -67 36 -14 -14 -3
-26 68 -77 l65 -46 67 53 c84 65 143 120 143 133 0 5 6 17 13 25 28 34 36 89
20 137 -33 98 -149 133 -235 72 -14 -10 -21 -9 -37 6 -30 27 -108 32 -148 9z"/>
</g>
</svg>
