<?xml version="1.0" standalone="no"?>
<!DOCTYPE svg PUBLIC "-//W3C//DTD SVG 20010904//EN"
 "http://www.w3.org/TR/2001/REC-SVG-20010904/DTD/svg10.dtd">
<svg version="1.0" xmlns="http://www.w3.org/2000/svg"
 width="60.000000pt" height="60.000000pt" viewBox="0 0 60.000000 60.000000"
 preserveAspectRatio="xMidYMid meet">
<metadata>
Created by potrace 1.10, written by Peter Selinger 2001-2011
</metadata>
<g transform="translate(0.000000,60.000000) scale(0.100000,-0.100000)"
fill="#000000" stroke="none">
<path d="M210 548 c-52 -36 -73 -71 -78 -132 -5 -58 13 -100 57 -140 23 -21
19 -36 -8 -36 -24 0 -106 -88 -114 -123 -4 -15 -10 -38 -13 -52 -5 -21 -3 -25
15 -25 15 0 21 6 21 23 0 32 49 106 91 138 30 23 45 26 114 28 l80 2 57 -51
c45 -40 58 -58 63 -91 7 -41 28 -60 46 -42 10 10 7 19 -27 98 -15 36 -77 95
-98 95 -25 0 -29 21 -8 36 28 19 59 83 60 124 1 39 -23 95 -53 125 -51 50
-149 61 -205 23z m147 -26 c52 -28 74 -65 72 -119 -8 -167 -235 -179 -264 -13
-7 44 19 96 65 128 39 26 83 28 127 4z"/>
</g>
</svg>
