<?xml version="1.0" standalone="no"?>
<!DOCTYPE svg PUBLIC "-//W3C//DTD SVG 20010904//EN"
 "http://www.w3.org/TR/2001/REC-SVG-20010904/DTD/svg10.dtd">
<svg version="1.0" xmlns="http://www.w3.org/2000/svg"
 width="60.000000pt" height="60.000000pt" viewBox="0 0 60.000000 60.000000"
 preserveAspectRatio="xMidYMid meet">
<metadata>
Created by potrace 1.10, written by Peter Selinger 2001-2011
</metadata>
<g transform="translate(0.000000,60.000000) scale(0.100000,-0.100000)"
fill="#000000" stroke="none">
<path d="M121 570 c-5 -3 -22 -31 -40 -62 -35 -64 -41 -124 -16 -172 11 -21
15 -62 15 -155 l0 -126 218 0 217 1 -4 126 c-2 104 0 131 13 150 28 39 21 117
-16 183 l-33 57 -173 1 c-96 1 -177 0 -181 -3z m62 -67 c-10 -23 -16 -58 -14
-89 3 -76 -39 -111 -73 -62 -22 30 -20 84 3 116 10 15 22 37 25 50 6 17 15 22
42 22 l34 0 -17 -37z m97 -58 c0 -92 -1 -96 -25 -107 -38 -17 -55 4 -55 68 0
29 4 63 9 76 5 13 12 31 15 41 3 10 15 17 31 17 25 0 25 0 25 -95z m97 45 c29
-100 13 -171 -35 -156 -26 8 -32 33 -32 129 l0 78 27 -3 c23 -2 29 -10 40 -48z
m106 1 c30 -55 34 -106 11 -139 -34 -48 -74 -6 -72 77 1 28 -4 57 -10 63 -23
23 -14 48 16 48 24 0 33 -8 55 -49z m-283 -176 c16 -19 59 -19 80 0 15 14 18
14 30 0 17 -20 70 -19 86 3 13 16 15 16 28 0 7 -10 23 -18 35 -18 20 0 21 -4
21 -105 l0 -105 -182 2 -183 3 0 100 c0 97 1 100 23 103 13 2 26 10 29 18 7
18 17 18 33 -1z"/>
</g>
</svg>
