<?xml version="1.0" standalone="no"?>
<!DOCTYPE svg PUBLIC "-//W3C//DTD SVG 20010904//EN"
 "http://www.w3.org/TR/2001/REC-SVG-20010904/DTD/svg10.dtd">
<svg version="1.0" xmlns="http://www.w3.org/2000/svg"
 width="60.000000pt" height="60.000000pt" viewBox="0 0 60.000000 60.000000"
 preserveAspectRatio="xMidYMid meet">
<metadata>
Created by potrace 1.10, written by Peter Selinger 2001-2011
</metadata>
<g transform="translate(0.000000,60.000000) scale(0.100000,-0.100000)"
fill="#000000" stroke="none">
<path d="M246 563 c-73 -11 -156 -105 -156 -177 0 -13 -6 -29 -14 -35 -21 -18
-14 -89 10 -109 11 -10 33 -34 48 -55 15 -21 59 -59 97 -84 l69 -46 20 21 c40
42 18 72 -52 72 -91 0 -138 70 -138 207 0 56 4 77 23 103 61 90 186 92 253 5
28 -37 29 -42 26 -136 l-3 -98 28 3 c19 2 30 10 34 27 12 42 10 77 -6 93 -8 8
-15 28 -15 45 0 35 -13 63 -50 104 -42 48 -106 70 -174 60z"/>
</g>
</svg>
