<?xml version="1.0" encoding="UTF-8" ?>
<!DOCTYPE svg PUBLIC "-//W3C//DTD SVG 1.1//EN" "http://www.w3.org/Graphics/SVG/1.1/DTD/svg11.dtd">
<svg width="120pt" height="88pt" viewBox="0 0 120 88" version="1.1" xmlns="http://www.w3.org/2000/svg">
<g id="#ebdffcff">
<path fill="#ebdffc" opacity="1.00" d=" M 11.43 0.00 L 13.33 0.00 C 19.87 0.40 25.40 6.38 24.99 12.96 C 24.94 20.06 17.88 26.00 10.88 24.89 C 5.26 24.21 0.62 19.39 0.00 13.78 L 0.00 11.67 C 0.34 5.61 5.45 0.59 11.43 0.00 Z" />
</g>
<g id="#f6f0ffff">
<path fill="#f6f0ff" opacity="1.00" d=" M 56.03 6.02 C 68.84 -0.67 84.95 -0.72 97.57 6.45 C 110.52 13.48 119.19 27.44 120.00 42.14 L 120.00 46.58 C 119.34 58.92 113.35 70.92 103.56 78.53 C 96.28 84.41 87.03 87.72 77.69 88.00 L 74.47 88.00 C 58.57 87.33 43.57 77.25 37.00 62.75 C 36.91 58.79 36.99 54.83 36.98 50.87 C 42.98 45.79 51.25 43.19 59.01 45.09 C 70.13 47.55 78.48 57.82 79.91 68.93 C 80.23 71.05 80.17 73.23 80.71 75.31 C 82.11 78.10 87.20 77.28 87.32 74.02 C 87.85 59.45 78.81 45.02 65.21 39.55 C 70.73 34.90 73.79 27.24 71.77 20.15 C 70.01 12.74 63.39 7.32 56.03 6.02 Z" />
<path fill="#f6f0ff" opacity="1.00" d=" M 50.41 13.60 C 57.95 11.11 66.30 18.20 65.21 26.01 C 64.57 32.68 57.46 37.84 50.93 36.02 C 44.62 34.68 40.49 27.55 42.49 21.39 C 43.63 17.69 46.70 14.70 50.41 13.60 Z" />
</g>
<g id="#b57fffff">
<path fill="#b57fff" opacity="1.00" d=" M 39.52 12.47 C 43.52 7.64 49.94 5.73 56.03 6.02 C 63.39 7.32 70.01 12.74 71.77 20.15 C 73.79 27.24 70.73 34.90 65.21 39.55 C 78.81 45.02 87.85 59.45 87.32 74.02 C 87.20 77.28 82.11 78.10 80.71 75.31 C 80.17 73.23 80.23 71.05 79.91 68.93 C 78.48 57.82 70.13 47.55 59.01 45.09 C 51.25 43.19 42.98 45.79 36.98 50.87 C 37.00 47.92 37.00 44.97 37.01 42.03 C 38.67 41.22 40.33 40.42 41.99 39.62 C 39.26 37.15 37.18 34.10 35.54 30.83 C 34.09 24.52 35.03 17.40 39.52 12.47 M 50.41 13.60 C 46.70 14.70 43.63 17.69 42.49 21.39 C 40.49 27.55 44.62 34.68 50.93 36.02 C 57.46 37.84 64.57 32.68 65.21 26.01 C 66.30 18.20 57.95 11.11 50.41 13.60 Z" />
</g>
<g id="#ffffffff">
<path fill="#ffffff" opacity="1.00" d=" M 19.02 36.88 C 18.70 32.00 23.12 27.64 27.99 27.97 C 30.86 27.70 33.16 29.57 35.54 30.83 C 37.18 34.10 39.26 37.15 41.99 39.62 C 40.33 40.42 38.67 41.22 37.01 42.03 C 37.00 44.97 37.00 47.92 36.98 50.87 C 36.99 54.83 36.91 58.79 37.00 62.75 C 36.81 68.11 37.42 73.53 36.65 78.85 C 35.26 84.51 27.87 86.70 23.14 83.78 C 20.44 82.26 18.92 79.14 19.02 76.09 C 18.99 63.02 18.98 49.95 19.02 36.88 M 21.72 33.81 C 21.97 43.05 22.61 52.28 22.84 61.53 C 25.84 61.34 28.84 60.87 31.63 59.70 C 32.50 50.88 32.83 42.01 32.80 33.15 C 29.10 33.29 25.40 33.36 21.72 33.81 M 26.29 66.29 C 22.60 66.81 20.81 71.29 22.61 74.40 C 24.58 78.31 31.46 77.52 32.21 73.08 C 33.38 69.47 30.09 65.44 26.29 66.29 Z" />
</g>
<g id="#d1afffff">
<path fill="#d1afff" opacity="1.00" d=" M 21.72 33.81 C 25.40 33.36 29.10 33.29 32.80 33.15 C 32.83 42.01 32.50 50.88 31.63 59.70 C 28.84 60.87 25.84 61.34 22.84 61.53 C 22.61 52.28 21.97 43.05 21.72 33.81 Z" />
<path fill="#d1afff" opacity="1.00" d=" M 26.29 66.29 C 30.09 65.44 33.38 69.47 32.21 73.08 C 31.46 77.52 24.58 78.31 22.61 74.40 C 20.81 71.29 22.60 66.81 26.29 66.29 Z" />
</g>
</svg>
