<svg width="34" height="34" viewBox="0 0 34 34" fill="none" xmlns="http://www.w3.org/2000/svg">
<g clip-path="url(#clip0_9203_328)">
<path d="M22.6725 34H11.3275C5.07079 34 0 28.9292 0 22.6725V11.3275C0 5.07079 5.07079 0 11.3275 0H22.6725C28.9292 0 34 5.07079 34 11.3275V22.6725C34 28.9292 28.9292 34 22.6725 34Z" fill="url(#paint0_linear_9203_328)"/>
<path d="M10.4542 14.75C10.4542 12.9598 11.1438 11.2429 12.3714 9.97703C13.599 8.71116 15.2639 8 17 8C18.7361 8 20.401 8.71116 21.6286 9.97703C22.8562 11.2429 23.5458 12.9598 23.5458 14.75V17.6052L24.9481 21.2217C24.9922 21.3355 25.0085 21.4587 24.9958 21.5804C24.9831 21.7022 24.9416 21.819 24.875 21.9204C24.8084 22.0218 24.7187 22.1049 24.6138 22.1624C24.5089 22.2198 24.3919 22.2499 24.2731 22.25H9.72685C9.60806 22.2499 9.4911 22.2198 9.38618 22.1624C9.28126 22.1049 9.19159 22.0218 9.12501 21.9204C9.05842 21.819 9.01694 21.7022 9.0042 21.5804C8.99145 21.4587 9.00783 21.3355 9.05191 21.2217L10.4542 17.6052V14.75ZM14.1817 23.75C14.3418 24.3949 14.7059 24.9662 15.2164 25.3737C15.7268 25.7812 16.3545 26.0016 17 26C17.6455 26.0016 18.2732 25.7812 18.7836 25.3737C19.2941 24.9662 19.6582 24.3949 19.8183 23.75H14.1817Z" fill="white"/>
</g>
<defs>
<linearGradient id="paint0_linear_9203_328" x1="17" y1="34" x2="17" y2="0" gradientUnits="userSpaceOnUse">
<stop stop-color="#FFB332"/>
<stop offset="1" stop-color="#FFCE76"/>
</linearGradient>
<clipPath id="clip0_9203_328">
<rect width="34" height="34" fill="white"/>
</clipPath>
</defs>
</svg>
