<?xml version="1.0" encoding="UTF-8" ?>
<!DOCTYPE svg PUBLIC "-//W3C//DTD SVG 1.1//EN" "http://www.w3.org/Graphics/SVG/1.1/DTD/svg11.dtd">
<svg width="64pt" height="71pt" viewBox="0 0 64 71" version="1.1" xmlns="http://www.w3.org/2000/svg">
<g id="#6ad2bdff">
<path fill="#6ad2bd" opacity="1.00" d=" M 29.60 0.00 L 30.62 0.00 C 35.72 0.08 41.12 1.40 44.54 5.45 C 51.03 5.79 55.97 10.94 58.22 16.69 C 61.16 22.88 60.98 29.84 60.96 36.51 C 64.13 38.86 64.42 43.32 63.16 46.74 C 60.30 49.66 59.83 54.05 56.79 56.80 C 54.26 59.36 50.74 60.98 47.11 60.90 C 41.08 60.89 35.05 60.98 29.03 60.86 C 25.71 61.02 23.56 56.50 26.01 54.12 C 28.89 51.55 34.12 52.08 36.30 55.39 C 40.53 55.38 44.79 55.67 49.01 55.27 C 52.04 54.93 54.04 52.41 55.40 49.91 C 54.72 49.90 53.37 49.87 52.70 49.85 C 52.65 43.13 53.18 36.25 51.23 29.72 C 50.05 24.94 47.66 20.58 44.70 16.67 C 42.85 19.73 40.86 22.89 37.70 24.74 C 30.49 29.37 21.35 28.28 13.74 31.79 C 9.96 33.46 8.51 37.65 8.30 41.50 C 7.61 41.51 6.23 41.54 5.53 41.55 C 5.12 45.41 6.40 49.69 10.59 50.73 C 13.24 58.05 19.05 64.94 27.09 66.19 C 33.42 66.85 39.81 66.28 46.16 66.45 C 43.82 68.68 40.77 69.90 37.77 71.00 L 23.36 71.00 C 16.45 68.96 10.86 63.67 7.62 57.34 C 5.97 53.63 1.23 52.20 0.55 47.89 C -0.37 42.30 0.30 36.60 0.12 30.96 C -0.02 24.00 2.31 17.00 6.74 11.62 C 12.29 4.75 20.85 0.65 29.60 0.00 Z" />
</g>
</svg>
