<?xml version="1.0" encoding="UTF-8" ?>
<!DOCTYPE svg PUBLIC "-//W3C//DTD SVG 1.1//EN" "http://www.w3.org/Graphics/SVG/1.1/DTD/svg11.dtd">
<svg width="45pt" height="45pt" viewBox="0 0 45 45" version="1.1" xmlns="http://www.w3.org/2000/svg">
<g id="#ccccccff">
<path fill="#cccccc" opacity="1.00" d=" M 28.03 1.84 C 35.12 -2.68 45.26 3.84 44.68 12.04 C 44.83 16.48 41.45 19.68 38.48 22.47 C 35.56 25.11 33.17 28.80 29.14 29.80 C 25.28 31.03 20.87 29.67 18.13 26.76 C 16.34 25.05 18.79 21.78 20.92 22.68 C 22.54 23.64 24.05 24.98 26.02 25.16 C 29.71 24.96 31.81 21.60 34.29 19.34 C 36.13 17.33 38.64 15.66 39.44 12.93 C 40.61 8.29 34.60 3.55 30.49 6.42 C 27.82 8.52 25.64 11.15 23.18 13.48 C 21.01 12.87 18.77 12.66 16.52 12.81 C 20.34 9.15 23.70 4.90 28.03 1.84 Z" />
<path fill="#cccccc" opacity="1.00" d=" M 11.13 18.16 C 15.22 13.76 22.95 13.85 26.94 18.32 C 28.54 19.88 26.99 22.39 25.03 22.56 C 22.90 22.04 21.32 20.05 19.03 20.07 C 16.08 19.95 14.21 22.49 12.31 24.32 C 10.23 26.59 7.68 28.48 6.06 31.12 C 3.78 35.56 9.28 41.20 13.79 39.14 C 17.01 37.31 19.19 34.16 21.93 31.73 C 24.11 32.19 26.34 32.38 28.58 32.30 C 24.15 36.74 20.02 41.56 14.73 45.00 L 14.19 45.00 C 11.97 43.94 9.32 44.97 7.15 43.68 C 1.35 41.15 -1.65 33.41 1.89 27.91 C 4.48 24.24 8.03 21.38 11.13 18.16 Z" />
</g>
</svg>
