<svg width="24" height="14" viewBox="0 0 24 14" fill="none" xmlns="http://www.w3.org/2000/svg">
<path fill-rule="evenodd" clip-rule="evenodd" d="M2.4 0C1.76348 0 1.15303 0.245833 0.702944 0.683417C0.252856 1.121 0 1.71449 0 2.33333V11.6667C0 12.2855 0.252856 12.879 0.702944 13.3166C1.15303 13.7542 1.76348 14 2.4 14H19.2C19.8365 14 20.447 13.7542 20.8971 13.3166C21.3471 12.879 21.6 12.2855 21.6 11.6667V10.5C22.2365 10.5 22.847 10.2542 23.2971 9.81658C23.7471 9.379 24 8.7855 24 8.16667V5.83333C24 5.21449 23.7471 4.621 23.2971 4.18342C22.847 3.74583 22.2365 3.5 21.6 3.5V2.33333C21.6 1.71449 21.3471 1.121 20.8971 0.683417C20.447 0.245833 19.8365 0 19.2 0H2.4ZM4.8 3.5C5.11826 3.5 5.42348 3.62292 5.64853 3.84171C5.87357 4.0605 6 4.35725 6 4.66667V9.33333C6 9.64275 5.87357 9.9395 5.64853 10.1583C5.42348 10.3771 5.11826 10.5 4.8 10.5C4.48174 10.5 4.17652 10.3771 3.95147 10.1583C3.72643 9.9395 3.6 9.64275 3.6 9.33333V4.66667C3.6 4.35725 3.72643 4.0605 3.95147 3.84171C4.17652 3.62292 4.48174 3.5 4.8 3.5ZM9.6 4.66667C9.6 4.35725 9.47357 4.0605 9.24853 3.84171C9.02348 3.62292 8.71826 3.5 8.4 3.5C8.08174 3.5 7.77652 3.62292 7.55147 3.84171C7.32643 4.0605 7.2 4.35725 7.2 4.66667V9.33333C7.2 9.64275 7.32643 9.9395 7.55147 10.1583C7.77652 10.3771 8.08174 10.5 8.4 10.5C8.71826 10.5 9.02348 10.3771 9.24853 10.1583C9.47357 9.9395 9.6 9.64275 9.6 9.33333V4.66667Z" fill="#22F450"/>
</svg>
