<svg width="29" height="29" viewBox="0 0 29 29" fill="none" xmlns="http://www.w3.org/2000/svg">
<path d="M20.7509 11.4369L17.5631 8.24914C17.3479 8.03164 17.0013 8.02031 16.7702 8.22195L2.9861 20.3295C2.81618 20.479 2.74821 20.7169 2.81391 20.9321C2.83204 20.9933 3.27383 22.4184 4.92774 24.0723C6.58165 25.7262 8.00673 26.168 8.06563 26.1861C8.12227 26.2042 8.17891 26.211 8.23329 26.211C8.39868 26.211 8.55727 26.1408 8.66829 26.0139L20.7781 12.2298C20.9797 11.9987 20.9684 11.6521 20.7509 11.4369ZM15.5603 7.74164L2.85923 18.8976C1.08071 16.3102 0.618521 14.5544 0.598131 14.4683C0.536959 14.2236 0.638912 13.9698 0.851881 13.8362L13.263 6.08094C13.4941 5.9382 13.7909 5.97219 13.9812 6.1625L15.5603 7.74164ZM22.8375 15.0188L21.2584 13.4397L10.1024 26.1408C12.6875 27.9193 14.4456 28.3815 14.5317 28.4019C14.5793 28.4132 14.6269 28.42 14.6722 28.42C14.8693 28.42 15.0574 28.3203 15.1638 28.1481L22.9191 15.7348C23.0618 15.5059 23.0278 15.2091 22.8375 15.0188ZM11.1129 4.59922L12.0101 5.49641L1.45001 12.0939C0.652506 9.26867 0.826959 7.34516 0.836021 7.25227C0.860943 7.00758 1.0354 6.80367 1.27329 6.74703L10.5646 4.44742C10.7595 4.39758 10.9702 4.45648 11.1129 4.59922ZM24.4008 17.8871L23.5013 16.9877L16.9084 27.5432C18.8274 28.0847 20.3385 28.1866 21.1292 28.1866C21.5031 28.1866 21.7183 28.1662 21.7477 28.164C21.9924 28.1391 22.1941 27.9646 22.253 27.7267L24.5526 18.4354C24.6024 18.2383 24.5435 18.0321 24.4008 17.8871ZM9.27548 3.57062L2.38571 5.27664C2.46047 3.24891 2.87962 0 5.26305 0C6.25087 0 7.39954 1.22797 9.27548 3.57062ZM25.5789 19.1241L23.7347 26.569C27.0493 26.2269 29 24.3781 29 22.577C29 21.537 27.7245 20.5673 25.5789 19.1241Z" fill="black"/>
</svg>
