<?xml version="1.0" encoding="utf-8"?>
<!-- Generator: Adobe Illustrator 23.1.0, SVG Export Plug-In . SVG Version: 6.00 Build 0)  -->
<svg version="1.1" id="Layer_1" xmlns="http://www.w3.org/2000/svg" xmlns:xlink="http://www.w3.org/1999/xlink" x="0px" y="0px"
	 viewBox="0 0 582 582" style="enable-background:new 0 0 582 582;" xml:space="preserve">
<linearGradient id="SVGID_1_" gradientUnits="userSpaceOnUse" x1="291" y1="790" x2="291" y2="208" gradientTransform="matrix(1 0 0 1 0 -208)">
	<stop  offset="0" style="stop-color:#DF95F0"/>
	<stop  offset="1" style="stop-color:#E5ADFF"/>
</linearGradient>
<path style="fill:url(#SVGID_1_);" d="M388.1,582H193.9C86.8,582,0,495.2,0,388.1V193.9C0,86.8,86.8,0,193.9,0h194.2
	C495.2,0,582,86.8,582,193.9v194.2C582,495.2,495.2,582,388.1,582z"/>
<g>
	<path style="fill:#FFFFFF;" d="M129,181.9c5.6-9,15.1-13.4,25.5-12.5c0.7,0.1,1.3,0.1,2,0.1c39.7-0.1,83.3-3.9,118.6,16.8
		c5.9,3.5,13.2,3.4,19.1-0.1c37.5-22.2,83.7-16.3,126.1-16.4c4.5,0,8.8,1.6,12.2,4.5l0.1,0.1c4.1,3.5,6.5,8.7,6.5,14.1v201.1
		c0,7.7-4.7,14.7-11.9,17.4c-4.3,1.6-8.9,2.2-13.7,1.8c-0.6,0-1.2-0.1-1.9,0c-33.3,1.1-69.9-5.6-99.7,12.9c-0.4,0.3-0.9,0.5-1.4,0.8
		c-6.7,3.4-12.9,8.9-19.9,11.5c-4.7,1.7-10,1.2-14.5-1.1c-15.8-8-29.9-19.7-48-22.1c-26.6-4.1-53.6-1.8-80.4-2.2
		c-5.2-0.1-10.2-2.4-13.6-6.3c-0.1-0.2-0.3-0.3-0.4-0.5c-3-3.4-4.7-7.8-4.7-12.3L129,181.9 M156,196.3c0.2,61.9,0.4,123.9-0.1,185.9
		c38.8,0.5,80.1-4.8,115.6,14.6c-2-59.4,1.3-119.1-1.6-178.5C241.7,186.6,193.6,199,156,196.3 M297.1,219.1
		c1.1,59.2,0.9,118.4,0,177.6c35.6-19.3,76.8-14,115.6-14.5c1-61.7-0.2-123.6,0.7-185.3C374.6,198,326.8,187.2,297.1,219.1z"/>
</g>
</svg>
