<?xml version="1.0" encoding="UTF-8" ?>
<!DOCTYPE svg PUBLIC "-//W3C//DTD SVG 1.1//EN" "http://www.w3.org/Graphics/SVG/1.1/DTD/svg11.dtd">
<svg width="304pt" height="287pt" viewBox="0 0 304 287" version="1.1" xmlns="http://www.w3.org/2000/svg">
<g id="#eef8f6ff">
<path fill="#eef8f6" opacity="1.00" d=" M 61.69 0.00 L 109.27 0.00 C 115.54 36.63 104.91 75.60 81.19 104.17 C 61.08 128.87 31.54 145.78 0.00 150.45 L 0.00 61.85 C 0.94 44.48 8.95 27.57 22.13 16.16 C 33.00 6.49 47.21 0.90 61.69 0.00 Z" />
</g>
<g id="#ffffffff">
<path fill="#ffffff" opacity="1.00" d=" M 109.27 0.00 L 242.10 0.00 C 257.21 0.85 272.02 6.89 283.09 17.26 C 282.88 67.57 283.05 117.88 283.01 168.19 C 278.73 164.38 274.34 160.70 269.90 157.10 C 255.89 146.68 239.00 140.26 221.66 138.43 C 198.58 136.06 174.79 142.48 155.84 155.81 C 151.71 159.02 147.64 162.32 143.73 165.79 C 140.12 169.52 136.97 173.67 133.68 177.68 C 120.60 195.52 113.97 217.98 115.05 240.06 C 116.11 256.60 121.08 273.06 130.16 287.00 L 61.88 287.00 C 47.57 286.19 33.53 280.74 22.68 271.33 C 8.61 259.39 0.13 241.22 0.00 222.76 L 0.00 150.45 C 31.54 145.78 61.08 128.87 81.19 104.17 C 104.91 75.60 115.54 36.63 109.27 0.00 Z" />
</g>
<g id="#9bdfcbff">
<path fill="#9bdfcb" opacity="1.00" d=" M 283.09 17.26 C 295.36 28.42 302.73 44.41 304.00 60.89 L 304.00 225.26 C 303.05 242.03 295.56 258.37 283.12 269.71 C 282.84 235.87 283.07 202.03 283.01 168.19 C 283.05 117.88 282.88 67.57 283.09 17.26 Z" />
</g>
<g id="#f2faf8ff">
<path fill="#f2faf8" opacity="1.00" d=" M 155.84 155.81 C 174.79 142.48 198.58 136.06 221.66 138.43 C 239.00 140.26 255.89 146.68 269.90 157.10 C 274.34 160.70 278.73 164.38 283.01 168.19 C 283.07 202.03 282.84 235.87 283.12 269.71 C 272.10 280.05 257.37 286.09 242.32 287.00 L 130.16 287.00 C 121.08 273.06 116.11 256.60 115.05 240.06 C 113.97 217.98 120.60 195.52 133.68 177.68 C 136.97 173.67 140.12 169.52 143.73 165.79 C 147.64 162.32 151.71 159.02 155.84 155.81 Z" />
</g>
</svg>
