<?xml version="1.0" encoding="UTF-8" ?>
<!DOCTYPE svg PUBLIC "-//W3C//DTD SVG 1.1//EN" "http://www.w3.org/Graphics/SVG/1.1/DTD/svg11.dtd">
<svg width="304pt" height="287pt" viewBox="0 0 304 287" version="1.1" xmlns="http://www.w3.org/2000/svg">
<g id="#f6f1fbff">
<path fill="#f6f1fb" opacity="1.00" d=" M 61.62 0.00 L 109.27 0.00 C 115.49 36.40 105.05 75.12 81.64 103.64 C 61.49 128.58 31.76 145.77 0.00 150.43 L 0.00 61.77 C 0.96 44.43 8.97 27.56 22.13 16.16 C 32.98 6.50 47.16 0.92 61.62 0.00 Z" />
</g>
<g id="#ffffffff">
<path fill="#ffffff" opacity="1.00" d=" M 109.27 0.00 L 242.17 0.00 C 257.30 0.87 272.12 6.94 283.18 17.35 C 282.76 67.61 283.11 117.89 283.01 168.15 C 276.59 162.83 270.55 156.96 263.35 152.67 C 249.47 144.01 233.35 139.04 217.04 138.05 C 194.71 136.94 172.05 143.77 154.11 157.11 C 148.83 161.50 143.12 165.52 139.00 171.10 C 124.86 187.02 116.64 207.82 115.07 228.99 C 113.90 249.25 119.25 269.84 130.10 287.00 L 61.81 287.00 C 47.75 286.18 33.95 280.91 23.20 271.77 C 8.84 259.85 0.15 241.49 0.00 222.83 L 0.00 150.43 C 31.76 145.77 61.49 128.58 81.64 103.64 C 105.05 75.12 115.49 36.40 109.27 0.00 Z" />
</g>
<g id="#d9b6ffff">
<path fill="#d9b6ff" opacity="1.00" d=" M 283.18 17.35 C 295.55 28.65 303.00 44.91 304.00 61.60 L 304.00 222.83 C 303.85 240.40 296.16 257.73 283.22 269.62 C 282.94 265.41 282.96 261.19 283.00 256.97 C 283.01 227.37 282.99 197.76 283.01 168.15 C 283.11 117.89 282.76 67.61 283.18 17.35 Z" />
</g>
<g id="#faf6ffff">
<path fill="#faf6ff" opacity="1.00" d=" M 154.11 157.11 C 172.05 143.77 194.71 136.94 217.04 138.05 C 233.35 139.04 249.47 144.01 263.35 152.67 C 270.55 156.96 276.59 162.83 283.01 168.15 C 282.99 197.76 283.01 227.37 283.00 256.97 C 282.96 261.19 282.94 265.41 283.22 269.62 C 272.20 280.00 257.45 286.07 242.38 287.00 L 130.10 287.00 C 119.25 269.84 113.90 249.25 115.07 228.99 C 116.64 207.82 124.86 187.02 139.00 171.10 C 143.12 165.52 148.83 161.50 154.11 157.11 Z" />
</g>
</svg>
