<?xml version="1.0" encoding="UTF-8" ?>
<!DOCTYPE svg PUBLIC "-//W3C//DTD SVG 1.1//EN" "http://www.w3.org/Graphics/SVG/1.1/DTD/svg11.dtd">
<svg width="304pt" height="287pt" viewBox="0 0 304 287" version="1.1" xmlns="http://www.w3.org/2000/svg">
<g id="#fff0f6ff">
<path fill="#fff0f6" opacity="1.00" d=" M 61.93 0.00 L 109.27 0.00 C 113.36 24.30 110.25 49.77 100.48 72.40 C 89.51 98.33 69.90 120.46 45.48 134.47 C 31.50 142.61 15.96 147.97 0.00 150.54 L 0.00 62.24 C 0.80 44.72 8.87 27.64 22.15 16.14 C 33.08 6.43 47.37 0.82 61.93 0.00 Z" />
</g>
<g id="#ffffffff">
<path fill="#ffffff" opacity="1.00" d=" M 109.27 0.00 L 241.69 0.00 C 256.94 0.72 271.92 6.81 283.09 17.27 C 282.88 67.58 283.06 117.90 283.00 168.21 C 278.92 164.52 274.73 160.94 270.41 157.53 C 251.00 142.78 225.84 135.90 201.62 138.52 C 182.44 140.66 163.80 148.47 149.18 161.12 C 121.68 183.86 108.95 222.76 117.60 257.38 C 120.27 267.79 124.18 278.01 130.15 287.00 L 62.27 287.00 C 47.79 286.31 33.57 280.80 22.62 271.27 C 8.57 259.33 0.12 241.17 0.00 222.73 L 0.00 150.54 C 15.96 147.97 31.50 142.61 45.48 134.47 C 69.90 120.46 89.51 98.33 100.48 72.40 C 110.25 49.77 113.36 24.30 109.27 0.00 Z" />
</g>
<g id="#ffb8d4ff">
<path fill="#ffb8d4" opacity="1.00" d=" M 283.09 17.27 C 295.58 28.64 303.10 45.05 304.00 61.89 L 304.00 222.81 C 303.85 240.43 296.13 257.81 283.13 269.70 C 282.83 235.88 283.08 202.04 283.00 168.21 C 283.06 117.90 282.88 67.58 283.09 17.27 Z" />
</g>
<g id="#fff4f8ff">
<path fill="#fff4f8" opacity="1.00" d=" M 201.62 138.52 C 225.84 135.90 251.00 142.78 270.41 157.53 C 274.73 160.94 278.92 164.52 283.00 168.21 C 283.08 202.04 282.83 235.88 283.13 269.70 C 272.05 280.09 257.22 286.17 242.09 287.00 L 130.15 287.00 C 124.18 278.01 120.27 267.79 117.60 257.38 C 108.95 222.76 121.68 183.86 149.18 161.12 C 163.80 148.47 182.44 140.66 201.62 138.52 Z" />
</g>
</svg>
