<svg width="28" height="30" viewBox="0 0 28 30" fill="none" xmlns="http://www.w3.org/2000/svg">
<path d="M21.2812 27.125H1.90625C1.325 27.125 0.9375 27.5125 0.9375 28.0938C0.9375 28.675 1.325 29.0625 1.90625 29.0625H21.2812C21.8625 29.0625 22.25 28.675 22.25 28.0938C22.25 27.5125 21.8625 27.125 21.2812 27.125Z" fill="black"/>
<path d="M23.2188 10.6562C22.5406 10.6562 21.8625 10.85 21.2812 11.2375V10.6562C21.2812 10.075 20.8938 9.6875 20.3125 9.6875H2.875C2.29375 9.6875 1.90625 10.075 1.90625 10.6562V16.6625C1.90625 21.8938 6.26562 26.1562 11.5938 26.1562C15.6625 26.1562 19.15 23.7344 20.6031 20.2469C21.2812 20.925 22.1531 21.3125 23.2188 21.3125C25.35 21.3125 27.0938 19.5688 27.0938 17.4375V14.5312C27.0938 12.4 25.35 10.6562 23.2188 10.6562ZM25.1562 17.4375C25.1562 18.5031 24.2844 19.375 23.2188 19.375C22.1531 19.375 21.2812 18.5031 21.2812 17.4375V16.6625V14.5312C21.2812 13.4656 22.1531 12.5938 23.2188 12.5938C24.2844 12.5938 25.1562 13.4656 25.1562 14.5312V17.4375Z" fill="black"/>
<path d="M11.5938 8.71895C11.7875 8.71895 11.9813 8.62207 12.175 8.5252C12.6594 8.23457 12.7563 7.65332 12.4656 7.16895C11.4969 5.71582 11.4969 3.8752 12.4656 2.42207C12.7563 1.9377 12.6594 1.35645 12.175 1.06582C11.6906 0.775195 11.1094 0.87207 10.8188 1.35645C9.46251 3.4877 9.46251 6.2002 10.8188 8.23457C11.0125 8.5252 11.3031 8.71895 11.5938 8.71895Z" fill="black"/>
<path d="M7.71876 8.71875C7.91251 8.71875 8.10626 8.62188 8.30001 8.525C8.78439 8.23438 8.88126 7.65313 8.59064 7.16875C7.62189 5.71563 7.62189 3.875 8.59064 2.42188C8.88126 1.9375 8.78439 1.35625 8.30001 1.06563C7.81564 0.871875 7.23439 0.96875 6.94376 1.35625C5.58751 3.4875 5.58751 6.2 6.94376 8.23438C7.13751 8.525 7.42814 8.71875 7.71876 8.71875Z" fill="black"/>
<path d="M15.4688 8.71895C15.6625 8.71895 15.8563 8.62207 16.05 8.5252C16.5344 8.23457 16.6313 7.65332 16.3406 7.16895C15.3719 5.71582 15.3719 3.8752 16.3406 2.42207C16.6313 1.9377 16.5344 1.35645 16.05 1.06582C15.5656 0.775195 14.9844 0.87207 14.6938 1.35645C13.3375 3.4877 13.3375 6.2002 14.6938 8.23457C14.8875 8.5252 15.1781 8.71895 15.4688 8.71895Z" fill="black"/>
</svg>
