<?xml version="1.0" encoding="UTF-8" ?>
<!DOCTYPE svg PUBLIC "-//W3C//DTD SVG 1.1//EN" "http://www.w3.org/Graphics/SVG/1.1/DTD/svg11.dtd">
<svg width="52pt" height="40pt" viewBox="0 0 52 40" version="1.1" xmlns="http://www.w3.org/2000/svg">
<g id="#565656ff">
<path fill="#565656" opacity="1.00" d=" M 14.47 5.07 C 15.69 3.32 16.63 0.93 18.94 0.41 C 23.27 -0.08 27.67 0.06 32.02 0.26 C 34.91 0.16 36.29 2.98 37.61 5.05 C 40.96 5.14 44.36 4.85 47.68 5.40 C 49.86 5.81 51.00 7.90 52.00 9.64 L 52.00 35.22 C 51.11 37.63 49.17 39.37 46.68 40.00 L 5.55 40.00 C 2.82 39.47 0.83 37.44 0.00 34.84 L 0.00 10.23 C 1.64 3.55 9.36 5.22 14.47 5.07 M 19.45 3.59 C 18.22 4.89 17.62 6.63 16.81 8.20 C 13.03 8.51 9.22 8.07 5.45 8.49 C 3.34 8.81 3.13 11.25 3.23 12.94 C 3.34 19.93 3.15 26.93 3.30 33.92 C 3.29 35.79 5.27 36.92 6.97 36.73 C 19.66 36.75 32.35 36.74 45.05 36.73 C 46.75 36.93 48.80 35.87 48.72 33.94 C 48.80 26.61 48.70 19.28 48.76 11.95 C 48.91 10.50 48.29 8.67 46.62 8.48 C 42.85 8.07 39.03 8.55 35.24 8.16 C 34.34 6.66 33.99 4.58 32.46 3.59 C 28.16 3.21 23.76 3.23 19.45 3.59 Z" />
<path fill="#565656" opacity="1.00" d=" M 16.73 14.79 C 20.42 9.03 28.92 8.65 33.86 13.00 C 34.57 12.30 35.28 11.59 35.99 10.88 C 36.71 13.99 37.51 17.08 38.42 20.15 C 35.37 19.29 32.30 18.49 29.23 17.73 C 29.98 16.85 30.73 15.97 31.48 15.09 C 28.72 13.45 25.15 12.36 22.18 14.15 C 19.42 15.45 18.67 18.60 17.10 20.94 C 13.36 20.70 15.47 16.65 16.73 14.79 Z" />
<path fill="#565656" opacity="1.00" d=" M 13.66 23.22 C 16.81 24.13 19.98 24.97 23.17 25.78 C 22.48 26.37 21.09 27.55 20.40 28.14 C 23.27 29.92 26.99 31.21 30.08 29.13 C 32.93 27.97 33.14 24.46 35.16 22.60 C 37.01 22.46 37.73 24.47 36.76 25.86 C 35.17 30.67 30.06 34.00 25.02 33.40 C 22.52 33.19 20.41 31.75 18.35 30.46 C 17.79 30.95 16.67 31.94 16.11 32.43 C 15.37 29.34 14.57 26.26 13.66 23.22 Z" />
</g>
</svg>
