<svg width="14" height="13" viewBox="0 0 14 13" fill="none" xmlns="http://www.w3.org/2000/svg">
<path fill-rule="evenodd" clip-rule="evenodd" d="M1.18022 0.381532C0.671509 0.890241 0.671509 1.71502 1.18022 2.22373L5.03543 6.07895L0.80243 10.312C0.293721 10.8207 0.293721 11.6454 0.80243 12.1542C1.31114 12.6629 2.13592 12.6629 2.64463 12.1542L6.87763 7.92115L11.0053 12.0488C11.514 12.5575 12.3388 12.5575 12.8475 12.0488C13.3562 11.5401 13.3562 10.7153 12.8475 10.2066L8.71983 6.07895L12.4697 2.32909C12.9784 1.82038 12.9784 0.995598 12.4697 0.486889C11.961 -0.0218201 11.1362 -0.0218202 10.6275 0.486889L6.87763 4.23675L3.02242 0.381532C2.51371 -0.127177 1.68893 -0.127177 1.18022 0.381532Z" fill="#FF5757"/>
</svg>
