<?xml version="1.0" encoding="UTF-8" ?>
<!DOCTYPE svg PUBLIC "-//W3C//DTD SVG 1.1//EN" "http://www.w3.org/Graphics/SVG/1.1/DTD/svg11.dtd">
<svg width="122pt" height="88pt" viewBox="0 0 122 88" version="1.1" xmlns="http://www.w3.org/2000/svg">
<g id="#edf7ffff">
<path fill="#edf7ff" opacity="1.00" d=" M 42.60 0.00 L 44.70 0.00 C 59.56 0.31 73.86 8.85 81.18 21.77 C 88.14 33.46 88.60 48.21 83.64 60.74 C 81.70 58.05 79.94 53.89 76.06 53.93 C 73.23 54.70 70.87 56.53 68.44 58.08 C 65.28 56.19 61.95 54.25 59.92 51.07 C 57.67 47.97 57.06 44.13 56.45 40.45 C 59.12 38.53 62.30 36.89 63.93 33.90 C 64.60 30.95 62.31 28.43 60.92 26.06 C 57.92 21.96 55.45 17.50 52.38 13.47 C 51.24 11.82 48.96 11.19 47.15 12.10 C 42.99 14.02 39.28 16.84 35.80 19.80 C 32.30 22.80 30.35 27.49 31.02 32.10 C 33.51 52.49 45.66 70.99 62.22 82.87 C 51.03 88.01 37.71 88.46 26.37 83.49 C 11.46 77.26 0.95 62.22 0.00 46.10 L 0.00 42.63 C 0.19 31.97 4.48 21.48 11.80 13.73 C 19.67 5.26 31.03 0.22 42.60 0.00 Z" />
<path fill="#edf7ff" opacity="1.00" d=" M 38.16 28.99 C 39.32 24.22 44.40 22.26 48.00 19.61 C 50.74 23.72 53.50 27.81 56.23 31.91 C 53.64 33.84 49.59 35.26 49.52 39.07 C 48.75 50.27 56.50 61.25 67.01 64.88 C 70.41 66.12 73.25 63.33 75.90 61.67 C 77.19 63.67 78.48 65.66 79.77 67.65 C 76.73 71.97 73.02 75.77 68.81 78.96 C 56.19 70.19 45.56 57.86 40.92 43.01 C 39.58 38.46 37.73 33.81 38.16 28.99 Z" />
<path fill="#edf7ff" opacity="1.00" d=" M 104.59 50.66 C 111.47 46.15 121.53 51.37 122.00 59.54 L 122.00 61.19 C 121.77 69.46 111.63 74.89 104.66 70.39 C 97.29 66.46 97.25 54.64 104.59 50.66 Z" />
</g>
<g id="#88c8ffff">
<path fill="#88c8ff" opacity="1.00" d=" M 83.51 3.49 C 86.24 2.69 88.97 4.19 91.44 5.23 C 104.77 11.40 111.27 27.92 107.68 41.83 C 107.04 41.80 105.76 41.74 105.11 41.71 C 106.73 31.55 104.91 20.19 97.15 12.84 C 93.44 8.68 87.99 7.19 83.03 5.16 C 83.15 4.74 83.39 3.90 83.51 3.49 Z" />
<path fill="#88c8ff" opacity="1.00" d=" M 35.80 19.80 C 39.28 16.84 42.99 14.02 47.15 12.10 C 48.96 11.19 51.24 11.82 52.38 13.47 C 55.45 17.50 57.92 21.96 60.92 26.06 C 62.31 28.43 64.60 30.95 63.93 33.90 C 62.30 36.89 59.12 38.53 56.45 40.45 C 57.06 44.13 57.67 47.97 59.92 51.07 C 61.95 54.25 65.28 56.19 68.44 58.08 C 70.87 56.53 73.23 54.70 76.06 53.93 C 79.94 53.89 81.70 58.05 83.64 60.74 C 86.03 64.81 88.95 68.56 91.26 72.67 C 92.67 74.93 91.76 78.13 89.43 79.36 C 84.87 82.00 80.82 85.93 75.42 86.72 C 70.68 87.64 66.07 85.42 62.22 82.87 C 45.66 70.99 33.51 52.49 31.02 32.10 C 30.35 27.49 32.30 22.80 35.80 19.80 M 38.16 28.99 C 37.73 33.81 39.58 38.46 40.92 43.01 C 45.56 57.86 56.19 70.19 68.81 78.96 C 71.30 80.09 74.28 80.40 76.76 79.06 C 79.25 77.62 81.50 75.80 84.05 74.46 C 82.66 72.17 81.19 69.93 79.77 67.65 C 78.48 65.66 77.19 63.67 75.90 61.67 C 73.25 63.33 70.41 66.12 67.01 64.88 C 56.50 61.25 48.75 50.27 49.52 39.07 C 49.59 35.26 53.64 33.84 56.23 31.91 C 53.50 27.81 50.74 23.72 48.00 19.61 C 44.40 22.26 39.32 24.22 38.16 28.99 Z" />
<path fill="#88c8ff" opacity="1.00" d=" M 80.96 14.07 C 81.50 13.57 82.58 12.57 83.12 12.07 C 95.33 14.21 102.95 29.11 98.46 40.31 L 96.52 39.79 C 96.80 34.18 97.04 28.20 93.86 23.27 C 91.29 18.26 86.00 15.84 80.96 14.07 Z" />
</g>
</svg>
