<svg width="34" height="34" viewBox="0 0 34 34" fill="none" xmlns="http://www.w3.org/2000/svg">
<rect width="34" height="34" rx="10" fill="url(#paint0_linear_9102_322)"/>
<path d="M17 8C21.9706 8 26 12.0294 26 17C26 21.9706 21.9706 26 17 26C12.0294 26 8 21.9706 8 17C8 12.0294 12.0294 8 17 8ZM20.1773 13.8227L20.1016 13.7573C19.8667 13.5831 19.5443 13.5809 19.3073 13.7509L19.2227 13.8227L17 16.0451L14.7773 13.8227L14.7016 13.7573C14.4667 13.5831 14.1443 13.5809 13.9073 13.7509L13.8227 13.8227L13.7573 13.8984C13.5831 14.1333 13.5809 14.4557 13.7509 14.6927L13.8227 14.7773L16.0451 17L13.8227 19.2227L13.7573 19.2984C13.5831 19.5333 13.5809 19.8557 13.7509 20.0927L13.8227 20.1773L13.8984 20.2427C14.1333 20.4169 14.4557 20.4191 14.6927 20.2491L14.7773 20.1773L17 17.9549L19.2227 20.1773L19.2984 20.2427C19.5333 20.4169 19.8557 20.4191 20.0927 20.2491L20.1773 20.1773L20.2427 20.1016C20.4169 19.8667 20.4191 19.5443 20.2491 19.3073L20.1773 19.2227L17.9549 17L20.1773 14.7773L20.2427 14.7016C20.4169 14.4667 20.4191 14.1443 20.2491 13.9073L20.1773 13.8227L20.1016 13.7573L20.1773 13.8227Z" fill="white"/>
<defs>
<linearGradient id="paint0_linear_9102_322" x1="17" y1="5.06639e-07" x2="17" y2="34" gradientUnits="userSpaceOnUse">
<stop stop-color="#FABCA1"/>
<stop offset="1" stop-color="#F98084"/>
</linearGradient>
</defs>
</svg>
