<svg width="32" height="22" viewBox="0 0 32 22" fill="none" xmlns="http://www.w3.org/2000/svg">
<path d="M30.0662 19.2L28.7989 16.1636H27.3233C26.9133 10.3117 23.3453 5.5089 18.654 4.17088C18.6717 4.02311 18.6813 3.87349 18.6813 3.72305C18.6813 1.9674 17.4785 0.539062 16.0001 0.539062C14.5216 0.539062 13.3188 1.9674 13.3188 3.72305C13.3188 3.87349 13.3283 4.02304 13.3461 4.17088C8.65487 5.50897 5.08694 10.3117 4.67681 16.1636H3.20112L1.93375 19.2H0V21.4575H0.9915H31.0086H32V19.2H30.0662ZM15.5527 3.80981C15.4624 3.81397 15.3723 3.81938 15.2826 3.82606C15.2632 3.82747 15.244 3.82799 15.2247 3.82955C15.2215 3.79548 15.2198 3.76001 15.2198 3.72312C15.2198 3.21227 15.5698 2.79665 16 2.79665C16.4302 2.79665 16.7802 3.21227 16.7802 3.72312C16.7802 3.76001 16.7785 3.79541 16.7752 3.82955C16.7561 3.82799 16.7368 3.82755 16.7176 3.82606C16.6277 3.81938 16.5377 3.81397 16.4474 3.80981C16.4156 3.80832 16.3838 3.80662 16.352 3.8055C16.2351 3.80127 16.1179 3.79845 16.0001 3.79845C15.8823 3.79845 15.765 3.80135 15.6481 3.8055C15.6163 3.80662 15.5845 3.80832 15.5527 3.80981ZM21.6601 14.0251C21.1494 12.7834 20.3597 11.733 19.3762 10.9874C18.3676 10.2226 17.2001 9.81841 16.0001 9.81841V7.5609C17.5633 7.5609 19.0844 8.08785 20.3992 9.08468C21.6774 10.0538 22.7042 11.4196 23.3682 13.0346L21.6601 14.0251Z" fill="black"/>
</svg>
