<svg width="29" height="29" viewBox="0 0 29 29" fill="none" xmlns="http://www.w3.org/2000/svg">
<path d="M27.6811 18.8945H1.31815C0.59018 18.8945 0 19.4847 0 20.2127V22.849C0 25.9986 2.56231 28.561 5.71198 28.561H23.2873C26.4369 28.561 28.9993 25.9986 28.9993 22.849V20.2127C28.9993 19.4846 28.4091 18.8945 27.6811 18.8945Z" fill="black"/>
<path d="M1.31815 10.1039H27.6811C28.4091 10.1039 28.9993 9.51375 28.9993 8.78578V6.14948C28.9993 2.9999 26.4369 0.4375 23.2873 0.4375H21.0904V3.0738V4.39195C21.0904 5.11992 20.5002 5.7101 19.7722 5.7101C19.0443 5.7101 18.4541 5.11992 18.4541 4.39195V3.0738V0.4375H15.8178V3.0738V4.39195C15.8178 5.11992 15.2276 5.7101 14.4996 5.7101C13.7717 5.7101 13.1815 5.11992 13.1815 4.39195V3.0738V0.4375H10.5452V3.0738V4.39195C10.5452 5.11992 9.95502 5.7101 9.22705 5.7101C8.49908 5.7101 7.9089 5.11992 7.9089 4.39195V3.0738V0.4375H5.71198C2.56231 0.4375 0 2.9999 0 6.14948V8.78578C0 9.51384 0.59018 10.1039 1.31815 10.1039Z" fill="black"/>
<path d="M27.2646 13.2494C26.6418 13.4571 26.1501 13.621 25.0462 13.621C25.046 13.621 25.0456 13.621 25.0454 13.621C23.9413 13.621 23.4491 13.4571 22.8259 13.2493C22.1134 13.0117 21.3055 12.7425 19.7748 12.7423C19.7741 12.7423 19.7733 12.7422 19.7727 12.7422C18.2405 12.7422 17.4324 13.0116 16.7194 13.2492C16.0964 13.4569 15.6044 13.621 14.5005 13.621C14.5003 13.621 14.5002 13.621 14.5002 13.621C13.3959 13.621 12.9036 13.457 12.2806 13.2492C11.568 13.0117 10.7602 12.7425 9.22976 12.7423C9.22896 12.7423 9.22826 12.7422 9.22756 12.7422C7.69534 12.7422 6.88732 13.0116 6.17428 13.2492C5.55133 13.4569 5.05948 13.621 3.95531 13.621C3.95513 13.621 3.95461 13.6209 3.95417 13.621C2.85053 13.621 2.3585 13.457 1.73563 13.2493L1.73537 13.2492C1.0444 13.0192 0.298411 13.3924 0.0680867 14.083C-0.162062 14.7736 0.211238 15.5202 0.90186 15.7504C1.61472 15.988 2.42265 16.2573 3.95399 16.2573C3.95452 16.2573 3.95496 16.2573 3.9554 16.2573C5.48691 16.2573 6.29503 15.988 7.00788 15.7504C7.63066 15.5427 8.12277 15.3787 9.22589 15.3786C9.22642 15.3786 9.22686 15.3787 9.2273 15.3787C10.3316 15.3787 10.8238 15.5427 11.4469 15.7504C12.1598 15.9881 12.968 16.2574 14.5001 16.2573C14.5002 16.2573 14.5002 16.2573 14.5004 16.2573C16.0321 16.2573 16.8401 15.988 17.553 15.7504C18.1759 15.5427 18.668 15.3787 19.7713 15.3786C19.7718 15.3786 19.7722 15.3787 19.7728 15.3787C20.877 15.3787 21.3692 15.5427 21.9923 15.7504C22.7053 15.9881 23.5135 16.2574 25.0453 16.2573C25.0456 16.2573 25.0458 16.2573 25.0462 16.2573C26.5777 16.2573 27.3857 15.988 28.0983 15.7504C28.7889 15.5201 29.1622 14.7735 28.9318 14.0829C28.7017 13.3923 27.955 13.0192 27.2646 13.2494Z" fill="black"/>
</svg>
