<?xml version="1.0" encoding="utf-8"?>
<!-- Generator: Adobe Illustrator 23.1.0, SVG Export Plug-In . SVG Version: 6.00 Build 0)  -->
<svg version="1.1" id="Layer_1" xmlns="http://www.w3.org/2000/svg" xmlns:xlink="http://www.w3.org/1999/xlink" x="0px" y="0px"
	 viewBox="0 0 582 582" style="enable-background:new 0 0 582 582;" xml:space="preserve">
<linearGradient id="SVGID_1_" gradientUnits="userSpaceOnUse" x1="291" y1="790" x2="291" y2="208" gradientTransform="matrix(1 0 0 1 0 -208)">
	<stop  offset="0" style="stop-color:#FF4660"/>
	<stop  offset="1" style="stop-color:#FF949E"/>
</linearGradient>
<path style="fill:url(#SVGID_1_);" d="M388.1,582H193.9C86.8,582,0,495.2,0,388.1V193.9C0,86.8,86.8,0,193.9,0h194.2
	C495.2,0,582,86.8,582,193.9v194.2C582,495.2,495.2,582,388.1,582z"/>
<g>
	<path style="fill:#FFFFFF;" d="M151.7,174.4c38-31.2,97.6-25.3,131.7,9.3c34.8-35.7,97.1-40.6,134.6-6.6
		c44.1,40,45.2,112.2,13.1,159.9c-35.4,54.4-94.5,84.6-146.2,120.6c-54.5-33.2-112.8-66.3-149.3-120.5
		C102.5,288.4,104.6,213.5,151.7,174.4 M164.5,186.8c-43.1,34.5-42.8,102.9-11.2,144.9c33.2,45.7,83.1,76.6,131.1,103.9
		c50.1-32.1,105.2-63,136.3-115.8c25.6-43.9,19.5-111-27.1-138.4c-37.6-22.3-87.5-5.4-110.4,30C258.8,172.7,201.8,157.6,164.5,186.8
		z"/>
	<path style="fill:#FFFFFF;" d="M344.1,192.3c33.2-6.9,64.9,26.2,69.5,58.1c2.2,11.8,3.2,36.3-15.6,31.2c-10.7-11.2,0.3-29.3-9-41.9
		c-7.9-20.4-29.8-25.6-47-34.7C342.5,201.8,343.6,195.5,344.1,192.3z"/>
</g>
</svg>
