<svg viewBox="0 0 103 104" fill="none" xmlns="http://www.w3.org/2000/svg">
<rect fill="white" height="110" width="110" />
<path d="M56.1 72.3C58.4 70.9 61.0 70.1 63.4 69.0C65.2 73.4 67.2 77.9 71.0 81C67.1 79.4 63.0 78.7 59.0 77.7C57.9 77.4 56.8 77.1 55.7 76.7C55.8 75.3 55.8 73.8 56.1 72.3Z" fill="white"/>
<path d="M44.7 12.5C53.8 10.8 64.1 12.3 71.0 18.8C73.9 21.4 78.0 22.3 80.4 25.5C84.0 29.8 85.3 35.6 84.9 41.0C84.9 47.9 80.5 53.6 79.6 60.2C77.3 69.6 78.7 80.1 84.9 87.8C81.0 86.7 77.2 85.6 73.9 83.4C72.9 82.6 71.9 81.8 71.0 81C67.2 77.9 65.2 73.4 63.4 69.0C66.9 66.0 71.3 62.4 69.7 57.2C73.0 55.5 75.4 51.3 72.9 47.9C71.2 45.2 67.8 46.2 65.6 47.4C65.0 46.4 64.4 45.5 63.8 44.5C61.6 44.5 59.4 44.5 57.2 44.5C56.6 43.6 56.0 42.7 55.3 41.9C55.0 42.6 54.3 44.0 54 44.7C49.8 44.7 45.5 44.7 41.3 44.7C41.3 42.7 41.3 40.6 41.3 38.6C40.5 40.6 39.7 42.7 38.9 44.7C35.4 44.7 32 44.7 28.5 44.8C28.5 48.2 28.2 51.6 27.4 54.9C24.4 47.3 22.7 38.5 25.7 30.6C28.9 22.2 35.6 14.4 44.7 12.5Z" fill="#606161"/>
<path d="M10.9 31.8C12.5 30.7 15.6 30.5 15.8 33.1C16.3 36.0 12.7 36.4 10.9 35.1C10.9 34.3 10.9 32.6 10.9 31.8Z" fill="#FEE8D7"/>
<path d="M93.2 36.4C94.6 36.3 94.5 38.8 93.7 39.5C92.3 39.7 92.4 37.2 93.2 36.4Z" fill="#FEE8D7"/>
<path d="M38.9 44.7C39.7 42.7 40.5 40.6 41.3 38.6C41.3 40.6 41.3 42.7 41.3 44.7C45.5 44.7 49.8 44.7 54 44.7C54.3 44.0 55.0 42.6 55.3 41.9C56.0 42.7 56.6 43.6 57.2 44.5C59.4 44.5 61.6 44.5 63.8 44.5C64.4 45.5 65.0 46.4 65.6 47.4C67.8 46.2 71.2 45.2 72.9 47.9C75.4 51.3 73.0 55.5 69.7 57.2C71.3 62.4 66.9 66.0 63.4 69.0C61.0 70.1 58.4 70.9 56.1 72.3C55.8 73.8 55.8 75.3 55.7 76.7C56.8 77.1 57.9 77.4 59.0 77.7C58.6 77.7 57.7 77.7 57.3 77.7C52.5 80.4 45.5 82.4 41.2 77.8C42.4 76.8 43.1 75.4 43.8 74.0C39.2 71.5 33.8 69.7 30.8 65.2C28.6 62.2 28.0 58.4 27.4 54.9C28.2 51.6 28.5 48.2 28.5 44.8C32 44.7 35.4 44.7 38.9 44.7Z" fill="#FEE8D7"/>
<path d="M88.4 41.2C89.1 40.4 91.6 40.3 91.5 41.7C90.8 42.5 88.3 42.6 88.4 41.2Z" fill="#FEE8D7"/>
<path d="M95.4 41.2C96.1 40.4 98.6 40.3 98.5 41.7C97.8 42.5 95.3 42.6 95.4 41.2Z" fill="#FEE8D7"/>
<path d="M93.2 43.4C94.6 43.2 94.5 45.8 93.7 46.5C92.3 46.6 92.4 44.1 93.2 43.4Z" fill="#FEE8D7"/>
<path d="M14.4 60.3C15.7 58.9 18.1 61.0 16.5 62.4C15.3 63.9 12.9 61.6 14.4 60.3Z" fill="#FEE8D7"/>
<path d="M11.3 63.3C12.6 61.9 14.8 64.2 13.4 65.5C12.1 67.1 9.9 64.7 11.3 63.3Z" fill="#FEE8D7"/>
<path d="M18.2 63.0C20.1 62.4 20.8 65.6 18.9 66.0C17.1 66.5 16.3 63.4 18.2 63.0Z" fill="#FEE8D7"/>
<path d="M15.1 66.1C16.9 65.5 17.9 68.6 15.9 69.0C14.0 69.7 13.1 66.6 15.1 66.1Z" fill="#FEE8D7"/>
<path d="M88.2 60.1C90.6 59.1 93.4 61.4 93.0 63.9C92.7 66.5 89.4 67.9 87.4 66.4C85.1 64.9 85.6 61.0 88.2 60.1ZM88.1 62.2C86.2 63.7 89.4 66.7 90.7 64.7C92.8 63.4 89.5 60.1 88.1 62.2Z" fill="#F27274"/>
<path d="M28.3 85.3C31.3 81.1 36.5 79.4 41.2 77.8C45.5 82.4 52.5 80.4 57.3 77.7C57.7 77.7 58.6 77.7 59.0 77.7C63.0 78.7 67.1 79.4 71.0 81C71.9 81.8 72.9 82.6 73.9 83.4C76.4 86.9 78.2 90.9 79.4 95.0C63.1 105.7 40.8 106.0 24.4 95.5C25.6 92.0 26.4 88.4 28.3 85.3Z" fill="#F27274"/>
</svg>
