<?xml version="1.0" encoding="utf-8"?>
<!-- Generator: Adobe Illustrator 23.1.0, SVG Export Plug-In . SVG Version: 6.00 Build 0)  -->
<svg version="1.1" id="Layer_1" xmlns="http://www.w3.org/2000/svg" xmlns:xlink="http://www.w3.org/1999/xlink" x="0px" y="0px"
	 viewBox="0 0 582 582" style="enable-background:new 0 0 582 582;" xml:space="preserve">
<linearGradient id="SVGID_1_" gradientUnits="userSpaceOnUse" x1="291" y1="789.5" x2="291" y2="207.5" gradientTransform="matrix(1 0 0 1 0 -208)">
	<stop  offset="0" style="stop-color:#5AC5FE"/>
	<stop  offset="1" style="stop-color:#A5E5FF"/>
</linearGradient>
<path style="fill:url(#SVGID_1_);" d="M388.1,581.5H193.9C86.8,581.5,0,494.7,0,387.6V193.4C0,86.3,86.8-0.5,193.9-0.5h194.2
	C495.2-0.5,582,86.3,582,193.4v194.2C582,494.7,495.2,581.5,388.1,581.5z"/>
<g>
	<path style="fill:#FFFFFF;" d="M223.7,152.8c8.7-1.2,17.6-1.3,26.4-1.4c15.1-0.2,30.2,1.6,44.9,4.8c13,3.2,26.2,7.5,36.8,16
		c4.3,3.4,7.7,8,9.6,13.2c1.5,5,0.9,10.2,1,15.3c0.1,28-0.1,56.1,0.1,84.1c10.4-0.1,20.8,0.3,31.1,1.8c14.1,2,28.3,5.1,41.2,11.3
		c7.2,3.4,14,8,18.7,14.6c1.9,3,3.2,6.3,4.2,9.8V401c-1.3,12.1-11.7,20.3-21.8,25.3c-13,6.5-27.4,9.6-41.7,11.8
		c-19.7,2.3-39.7,2.5-59.4,0c-13.6-2.1-27.2-5-39.8-10.7c-9.8-4.8-20-11.5-23.3-22.5c-1.9-8.4,0-17.1-1-25.6
		c-15.2,0.5-30.4-1.3-45.2-4.2c-13.7-3.2-27.6-7.4-38.7-16.3c-6.4-5.2-11.3-12.8-11.1-21.3V195c0.2-3.9,0.3-8.1,2.1-11.7
		c3.8-8.2,11.4-13.8,19.1-17.8C191.2,158,207.5,154.7,223.7,152.8 M172,226.6c-1.1,2.6,0.2,5.3,1.7,7.4c5,5.1,11.5,8.2,18.1,10.8
		c0.9,0.4,1.8,0.7,2.7,1c16.1,5.4,33.2,7.8,50.2,7.8c10.2,0.3,20.5-0.2,30.6-1.4c11.2-1.8,22.5-3.7,32.9-8.4c3.9-1.5,7.6-3.3,11-5.6
		c2.4-1.8,4.7-3.8,6.3-6.3c2.2-4.7-1.7-9.4-5.6-11.7c-3,1-5.8,2.5-8.7,3.7c-16.8,5.9-34.6,8.5-52.3,9.5c-27.6,0.8-56-1.8-81.4-13.3
		C175.5,222.1,173.3,224,172,226.6 M172.4,268c0.7,2.2,2.5,3.9,4.4,5.1c5.2,4.1,11.3,6.8,17.5,8.9c8.6,3.5,18,4.9,27.1,6.5
		c15.3,2,30.9,2.1,46.3,1c13.6-1.3,27.2-3.7,39.9-8.8c1.7-0.8,3.4-1.3,5-2.3c2-0.8,3.9-1.9,5.7-3.1c1.7-1.3,3.3-2.6,4.9-4
		c3.8-3,3.8-8.9,0-11.9c-1.1-1.1-2.4-3-4.2-2.4c-10.6,5.1-22.2,7.9-33.7,10c-18.4,3.2-37.1,3.6-55.7,2.3c-14.7-1.4-29.4-4-43.3-9
		c-3-0.9-5.6-2.8-8.7-3.5C174.2,259.3,169.8,263.5,172.4,268 M172.2,304.4c2.6,4.9,7.7,7.8,12.5,10.2c5.5,3,11.5,4.8,17.5,6.5
		c3.6,1,7.1,1.8,10.8,2.5c12.4,2.3,24.9,3.2,37.5,3.2c0-6.3,2.5-12.4,6.7-17.1c1-1.4,2.3-2.4,3.6-3.4c-5.4-0.4-10.8,0.4-16.1,0
		c-8.7,0.1-17.4-0.8-26.1-1.8c-13.8-2.2-27.8-5-40.3-11.4C174.4,295.2,170.3,299.7,172.2,304.4 M171.9,336
		c-1.6,7.3,6.3,11.3,11.4,14.6c20.8,10.1,44.4,12.7,67.3,12.8c0.1-6.8-0.1-13.6,0-20.5C227,343,203,340.1,181,331.1
		c-0.9-0.5-1.8-1.1-2.7-1.7C175.5,330.8,173.5,333.3,171.9,336 M267.5,359.6c-1.1,2.4-0.6,5.4,1.2,7.4c1.1,1.3,2.2,2.5,3.6,3.4
		c1.6,1.4,3.4,2.5,5.3,3.5c15.3,8.4,33,11.1,50.2,12.9c16.8,1,33.8,0.9,50.4-2.3c11.1-1.8,22-4.9,32-10.1c4.2-2.6,9.1-5.2,11.1-10
		c1-3.2-1.1-6.8-3.8-8.5l0.3-0.5c-1.9-2.4-4.5-1-6.6,0.4c-2.4,0.9-4.8,1.6-7.1,2.7c-12.2,4-24.9,6.4-37.6,7.6
		c-26.5,2.5-53.7,0.9-79.3-6.7c-2.4-0.9-4.7-1.8-7.1-2.6c-0.9-0.4-1.7-0.8-2.7-1c-1.4-0.8-2.8-1.4-4.3-2
		C271,355.4,268.8,357.2,267.5,359.6 M271,391.7c-1.8,2.1-4.4,4.1-4.2,7.2c0.2,4.2,3.9,6.6,6.7,9.1c0.7,0.4,1.5,0.9,2.2,1.3
		c12.6,7.5,27.2,10.7,41.5,12.8c15.2,1.9,30.7,2,46,0.9c13.8-1.4,27.6-3.9,40.5-9.2c2.4-1.1,5-2,7.1-3.6c1.6-0.5,2.9-1.8,4.3-2.7
		c3.1-2.2,6.6-5.3,6.3-9.4c-0.6-3.4-3.7-5.5-5.8-8c-1.3,0.4-2.6,0.9-3.9,1.4c-1.4,0.7-2.8,1.3-4.3,1.8c-1.1,0.5-2.2,0.9-3.4,1.4
		c-25.4,8.2-52.4,10-78.9,8c-16.6-1.6-33.3-4.4-48.6-11.2C274.7,390.5,272.5,389.5,271,391.7z"/>
</g>
</svg>
