<svg viewBox="0 0 139 97" fill="none" xmlns="http://www.w3.org/2000/svg">
    <path
        d="M66.97 0H69.14C71.91 0.93 74.05 4.01 72.68 6.91C71.38 10.39 66.21 11.2 64.04 8.1C61.54 5.28 63.53 0.85 66.97 0ZM66.41 2.54C63.79 3.93 65.25 8.18 68.05 7.95C70.17 8.1 72.02 4.99 70.37 3.34C69.58 2.03 67.61 1.47 66.41 2.54Z"
        fill="#66D4C9" />
    <path
        d="M0 11C1.15 6.94 6.2 4.42 9.89 6.92C14.06 9.17 14.05 15.81 9.9 18.07C6.21 20.6 1.16 18.05 0 13.99V11Z"
        fill="#66D4C9" />
    <path
        d="M133.83 19.78C135.77 18.83 137.66 19.69 139 21.25V22.73C137.59 24.45 135.59 24.73 133.53 24.51C133.53 22.93 133.37 21.32 133.83 19.78ZM134.81 22C135.11 22.3 135.7 22.88 136 23.18C136.3 22.88 136.9 22.3 137.19 22C136.9 21.71 136.3 21.12 136 20.83C135.7 21.12 135.11 21.71 134.81 22Z"
        fill="#66D4C9" />
    <path
        d="M119.37 64.33C122.05 62.72 124.51 67.21 121.77 68.61C119 70.49 116.4 65.63 119.37 64.33Z"
        fill="#66D4C9" />
    <path
        d="M5.53996 75.57C7.69996 74.17 10.28 74.14 12.45 75.52C13.82 77.7 13.86 80.28 12.46 82.46C10.29 83.83 7.70996 83.88 5.53996 82.5C4.21996 80.31 4.10996 77.73 5.53996 75.57ZM5.42996 80.15C5.84996 80.73 6.68996 81.87 7.10996 82.45C9.25996 82.66 11.35 82.4 12.53 80.38C12.53 79.7 12.54 78.34 12.55 77.65C11.4 75.86 9.52996 75.28 7.45996 75.34C6.19996 76.69 5.29996 78.23 5.42996 80.15Z"
        fill="#66D4C9" />
    <path
        d="M23.9021 24.7359C25.1968 22.0667 27.9796 20.1771 30.9507 20.0226C33.0446 19.8681 35.1899 20.5109 36.8308 21.8251C38.8252 23.3791 40.0683 25.8671 40.0577 28.4014C40.0506 30.3424 40.0541 32.2817 40.0559 34.2211C44.0002 34.2228 47.9445 34.2228 51.8888 34.2228C53.0165 31.0297 56.1351 28.6216 59.5484 28.5417C67.3606 28.531 75.1747 28.5363 82.987 28.5381C86.4287 28.5754 89.6378 30.9764 90.7495 34.2175C92.7936 34.2282 94.8377 34.2211 96.8835 34.2211C96.896 32.1965 96.8569 30.1702 96.9013 28.1456C96.9972 25.4711 98.4534 22.9049 100.682 21.4291C102.888 19.9267 105.82 19.5963 108.322 20.5021C110.325 21.2053 112.023 22.7095 113 24.5902V63.7244C111.798 66.0154 109.526 67.7273 106.969 68.1678C104.63 68.61 102.114 68.0186 100.231 66.5552C98.1995 65.0262 96.9457 62.5417 96.8942 60.0021C96.8658 57.0931 96.8942 54.1824 96.8818 51.2734C94.9886 51.2717 93.0955 51.2717 91.2024 51.2734C91.1953 53.4791 91.2095 55.683 91.197 57.8887C91.0621 61.5542 90.2949 65.1789 89.1174 68.6473C88.6148 70.3166 88.6823 72.1192 89.1263 73.7939C90.7477 80.2742 92.3762 86.7546 93.9835 93.2384C94.3422 94.6467 93.4489 96.222 92.0424 96.602C90.5879 97.0886 88.8528 96.1634 88.4817 94.6663C86.997 88.804 85.5461 82.931 84.0738 77.0651C83.7346 75.6568 83.312 74.261 83.1734 72.8154C82.9692 70.9506 83.1042 69.0415 83.589 67.2301C84.7984 63.7155 85.6118 60.0145 85.5176 56.2815C85.5265 49.8935 85.4502 43.5056 85.491 37.1176C85.6278 35.6223 84.2869 34.2317 82.8058 34.2264C81.8166 34.2122 80.8257 34.2299 79.8365 34.2246C79.8312 37.0838 79.8365 39.9413 79.8347 42.8005C79.8471 43.5588 79.5097 44.2994 78.9556 44.8109C78.0517 45.6899 76.5457 45.8285 75.4873 45.1465C74.6259 44.6279 74.1376 43.6174 74.1535 42.6247C74.1464 39.8241 74.1553 37.0252 74.15 34.2246C72.2622 34.2139 70.3762 34.2406 68.4901 34.2104C68.4404 37.0714 68.483 39.9342 68.4688 42.7952C68.4866 43.6405 68.0639 44.4539 67.405 44.9725C66.4549 45.7361 65.0093 45.7823 64.0166 45.0773C63.2139 44.5427 62.7734 43.573 62.7876 42.6229C62.7805 39.8241 62.7894 37.0235 62.7841 34.2246C61.7629 34.2335 60.74 34.1997 59.7206 34.2335C58.323 34.3063 57.11 35.585 57.1438 36.9897C57.1242 40.8204 57.1473 44.6528 57.1331 48.4835C57.1509 49.5508 56.4672 50.5684 55.5082 51.0159C54.3947 51.5167 53.1391 51.229 51.9599 51.3072C52.3914 53.8858 52.8159 56.468 53.251 59.0449C53.8086 62.119 55.6822 64.9178 58.2999 66.6192C61.1254 68.5034 62.5745 72.1671 61.802 75.4757C60.2907 81.5777 58.751 87.6745 57.2344 93.7765C57.0692 94.4372 56.9502 95.1511 56.4831 95.6803C55.7053 96.6713 54.2277 97.014 53.0929 96.4671C51.8586 95.952 51.1643 94.4674 51.5194 93.1852C52.9988 87.2642 54.4799 81.3451 55.9592 75.4242C56.1475 74.6517 56.4405 73.856 56.2469 73.0551C56.0942 72.2897 55.5916 71.6326 54.9363 71.2224C51.7521 69.0753 49.3244 65.8324 48.1772 62.1652C47.6994 60.7231 47.513 59.2118 47.2555 57.72C46.8985 55.5729 46.5504 53.4223 46.1899 51.2752C44.144 51.2699 42.1 51.2699 40.0541 51.2752C40.0541 53.8929 40.0523 56.5106 40.0559 59.1301C40.0683 59.9559 40.0701 60.7924 39.8765 61.6022C39.3508 64.1471 37.5607 66.3812 35.213 67.4823C33.0303 68.5407 30.3896 68.5798 28.1661 67.619C25.9409 66.6724 24.165 64.7331 23.4315 62.428C23.0355 61.2577 22.984 60.011 23.0035 58.7874C23.0071 48.7765 23.0035 38.7674 23.0053 28.7565C23.0017 27.3731 23.2663 25.9737 23.9021 24.7359ZM30.6666 25.8281C29.5016 26.1957 28.6847 27.3607 28.6936 28.5772C28.6829 38.9414 28.6882 49.3057 28.6918 59.67C28.6509 61.0357 29.6774 62.3427 31.0342 62.5718C32.6752 62.9306 34.4085 61.5152 34.3712 59.8316C34.3587 55.6866 34.3996 51.5398 34.3374 47.3931C34.3126 41.0637 34.3854 34.7343 34.3694 28.4031C34.3694 26.6024 32.3608 25.2012 30.6666 25.8281ZM104.541 25.8281C103.375 26.1992 102.558 27.3696 102.572 28.5878C102.57 31.257 102.547 33.9262 102.584 36.5937C102.653 44.3402 102.522 52.0868 102.577 59.8334C102.607 60.7782 103.121 61.691 103.929 62.1865C105.161 63.014 106.978 62.6038 107.772 61.3607C108.288 60.6698 108.278 59.7783 108.249 58.9578C108.249 49.0731 108.248 39.1883 108.249 29.3035C108.257 28.6074 108.304 27.8668 107.949 27.2381C107.345 26.0252 105.829 25.3752 104.541 25.8281ZM40.0879 45.5869C43.8439 45.6171 47.6018 45.5496 51.3561 45.5727C51.4253 43.6849 51.3685 41.7953 51.3845 39.9075C47.6213 39.904 43.8564 39.9075 40.0914 39.9058C40.0825 41.7989 40.0896 43.6938 40.0879 45.5869ZM91.2343 45.5869C93.1061 45.5905 94.978 45.5887 96.8498 45.5869C96.8516 43.6938 96.8516 41.8007 96.848 39.9075C94.978 39.904 93.1079 39.9075 91.2379 39.9058C91.229 41.7989 91.2361 43.6938 91.2343 45.5869Z"
        fill="#66D4C9" />
</svg>
