<svg width="142" height="87" viewBox="0 0 142 87" fill="none" xmlns="http://www.w3.org/2000/svg">
<path d="M53.7386 15.5724L41.9438 76.724L40.4111 84.7295L119.076 84.3259C122.608 84.2923 125.74 81.1304 126.873 76.4549L140.833 18.7343C141.7 15.1688 139.801 11.4688 137.135 11.4688L57.5369 11.5697C55.7377 11.536 54.205 13.1842 53.7386 15.5724Z" fill="#E8505B"/>
<g opacity="0.5">
<path d="M53.7386 15.5724L41.9438 76.724L40.4111 84.7295L119.076 84.3259C122.608 84.2923 125.74 81.1304 126.873 76.4549L140.833 18.7343C141.7 15.1688 139.801 11.4688 137.135 11.4688L57.5369 11.5697C55.7377 11.536 54.205 13.1842 53.7386 15.5724Z" fill="black"/>
</g>
<path d="M111.513 72.5881L103.183 4.84369C102.85 2.05184 100.651 0 98.0523 0L79.7937 0.0672735C78.4277 0.0672735 77.1616 0.639098 76.1953 1.68184L67.5325 10.9992L16.7549 11.2347C13.6563 11.2347 11.2573 14.2283 11.6905 17.5584L19.4204 80.1899C19.7536 82.9482 21.9526 85.0336 24.5181 85.0336L113.012 84.8655C122.875 85.0673 123.808 82.1409 123.808 82.1409C112.513 84.63 111.513 72.5881 111.513 72.5881Z" fill="#E8505B"/>
<path d="M71.7147 57.5351C72.6223 58.3597 72.682 59.7665 71.8476 60.665C71.0259 61.5499 69.6452 61.6085 68.7515 60.7965L49.0232 42.8715C48.1157 42.0469 48.0559 40.6401 48.8903 39.7415C49.712 38.8567 51.0927 38.7981 51.9864 39.6101L71.7147 57.5351Z" fill="white"/>
<path d="M67.6338 39.0587C68.4632 38.161 69.8612 38.0995 70.7663 38.9209C71.6829 39.7528 71.7453 41.1725 70.9053 42.0816L53.1042 61.3466C52.2747 62.2443 50.8767 62.3057 49.9716 61.4843C49.055 60.6524 48.9926 59.2328 49.8327 58.3237L67.6338 39.0587Z" fill="white"/>
<path d="M6.78942 50.333C8.70706 50.2609 10.581 51.2192 11.9151 52.5564C13.2492 53.8937 14.1598 55.659 14.7927 57.5001C15.9908 61.0157 15.7151 65.3156 14.8868 68.9677C10.9673 67.8618 8.2674 63.8765 7.04859 61.7324C5.12637 58.3798 3.67936 51.1705 6.78942 50.333Z" fill="#1ABC9C"/>
<path d="M20.7504 72.9103C19.3934 71.2322 19.2287 68.7886 20.0555 66.7921C20.8822 64.7955 22.6478 63.3065 24.6321 62.5449C25.5699 62.1963 26.6317 62.0106 27.5105 62.4651C28.333 62.9235 28.6834 63.9274 28.6883 64.8404C28.637 65.7572 28.2441 66.6399 27.731 67.4166C25.9933 70.1595 23.8873 72.4706 20.7504 72.9103Z" fill="#1ABC9C"/>
<path d="M21.9527 84.8789C21.9527 84.8789 21.8772 84.5986 21.734 84.1516C21.587 83.6477 21.4285 82.9734 21.2022 82.1324C20.8059 80.4466 20.1346 78.0372 20.3449 75.283C20.5026 72.5894 21.4151 70.1875 22.449 68.7478C22.966 68.0279 23.4381 67.4824 23.813 67.1717C23.9703 66.9898 24.1316 66.8648 24.2403 66.8004C24.3491 66.736 24.4015 66.6754 24.4015 66.6754C24.4616 66.7284 23.543 67.3611 22.5692 68.8538C21.5917 70.2897 20.7316 72.631 20.5738 75.3246C20.4161 78.0182 21.0272 80.3746 21.371 82.121C21.541 82.9658 21.7034 83.697 21.8466 84.144C21.9374 84.6516 22.009 84.8752 21.9527 84.8789Z" fill="#263238"/>
<path d="M8.39587 55.7109C8.39587 55.7109 8.45982 55.8208 8.58388 55.9837C8.71178 56.2034 8.8435 56.48 9.03534 56.8095C9.42285 57.5255 10.006 58.6279 10.6608 59.9538C12.0266 62.6018 13.7991 66.2499 15.7187 70.4019C17.6344 74.4971 19.2457 78.2702 20.3902 80.9902C20.9925 82.3767 21.4068 83.4905 21.7419 84.2671C21.8813 84.6573 22.013 84.9338 22.0846 85.1574C22.1562 85.3809 22.2201 85.4907 22.1639 85.4945C22.1639 85.4945 22.0999 85.3847 22.0321 85.218C21.9042 84.9983 21.8288 84.7179 21.6331 84.3315C21.2981 83.5549 20.8275 82.4449 20.229 81.1152C19.0282 78.399 17.3644 74.6865 15.4449 70.5345C13.5292 66.4394 11.7529 62.7344 10.4433 60.0826C9.78852 58.7567 9.26547 57.7074 8.93042 56.9308C8.73858 56.6012 8.60303 56.2678 8.53142 56.0443C8.45982 55.8208 8.39587 55.7109 8.39587 55.7109Z" fill="#263238"/>
<path d="M16.8607 77.281C14.3449 73.5117 9.88704 71.1291 5.42108 71.1446C4.29148 71.1636 2.89575 71.4289 2.45807 72.4859C2.02039 73.5429 2.78009 74.7476 3.62557 75.5469C7.07141 78.8539 12.6157 79.7362 16.9399 77.6182" fill="#1ABC9C"/>
<path d="M7.37236 74.0897C7.37236 74.0897 7.6538 74.0707 8.10411 74.0404C8.32927 74.0252 8.61454 74.0631 8.9561 74.0972C9.29766 74.1312 9.63922 74.1653 10.0409 74.2524C10.4426 74.3395 10.8967 74.366 11.3585 74.5061C11.8165 74.5894 12.3384 74.7826 12.8603 74.9758C13.9041 75.3621 14.9556 75.8621 16.0224 76.5894C17.0892 77.3167 17.991 78.1122 18.7239 78.9191C19.0923 79.3509 19.4005 79.7298 19.7126 80.1654C20.0208 80.5442 20.2165 80.9306 20.4684 81.3132C20.7166 81.639 20.8559 82.0292 20.9877 82.3058C21.1194 82.5823 21.2511 82.8589 21.3227 83.0824C21.4659 83.5294 21.5938 83.7491 21.5375 83.7529C21.4812 83.7567 21.1347 82.8096 20.3034 81.3815C20.0553 81.0557 19.8596 80.6693 19.5514 80.2904C19.2994 79.9078 18.9349 79.5328 18.5665 79.101C17.8336 78.2941 16.9318 77.4986 15.9252 76.8243C14.8622 76.1538 13.8069 75.597 12.8193 75.2069C12.2974 75.0137 11.8356 74.8736 11.3738 74.7334C10.912 74.5933 10.4541 74.51 10.0524 74.4229C8.39321 74.1351 7.3199 74.1503 7.37236 74.0897Z" fill="#263238"/>
</svg>
