<?xml version="1.0" encoding="utf-8"?>
<!-- Generator: Adobe Illustrator 23.1.0, SVG Export Plug-In . SVG Version: 6.00 Build 0)  -->
<svg version="1.1" id="Layer_1" xmlns="http://www.w3.org/2000/svg" xmlns:xlink="http://www.w3.org/1999/xlink" x="0px" y="0px"
	 viewBox="0 0 582 582" style="enable-background:new 0 0 582 582;" xml:space="preserve">
<linearGradient id="SVGID_1_" gradientUnits="userSpaceOnUse" x1="291" y1="2" x2="291" y2="584" gradientTransform="matrix(1 0 0 -1 0 584)">
	<stop  offset="0" style="stop-color:#3EE558"/>
	<stop  offset="1" style="stop-color:#8DF28C"/>
</linearGradient>
<path style="fill:url(#SVGID_1_);" d="M388.1,582H193.9C86.8,582,0,495.2,0,388.1V193.9C0,86.8,86.8,0,193.9,0h194.2
	C495.2,0,582,86.8,582,193.9v194.2C582,495.2,495.2,582,388.1,582z"/>
<g>
	<path style="fill:#FFFFFF;" d="M277.8,132.2h0.3c17.3,31.6,35.1,62.9,52.5,94.5c35.8,7,71.7,13.6,107.4,20.6v0.1
		c-25.1,26.1-49.8,52.5-74.7,78.8c4.4,34.2,8.6,68.5,13,102.7c0.2,1.5,0.3,3,0.3,4.4h-0.3c-16-7.9-32.3-15.1-48.4-22.7
		c-16-7.4-31.9-14.8-47.9-22.2c-1-0.3-2-1.2-3-0.6c-27.4,12.7-54.7,25.4-82,38.1c-5.2,2.3-10.2,4.9-15.5,7l1.2,0.4h-1.5
		c-0.1-2.1,0.2-4.3,0.5-6.4c4.3-33.6,8.5-67.2,12.8-100.8c-24.9-26.3-49.7-52.6-74.7-78.8v-0.1c35.8-7,71.6-13.6,107.4-20.5
		C242.6,195.2,260.5,163.9,277.8,132.2 M277.9,190.8c-11.2,20.5-22.8,40.8-34.1,61.3c-23.2,4.5-46.5,8.8-69.8,13.3
		c16.2,17.1,32.4,34.2,48.6,51.3c-3,23.2-6,46.4-8.8,69.6c20.6-9.7,41.3-19.1,61.9-28.8c1.1-0.4,2.3-1.4,3.4-0.5
		c21.1,9.8,42.1,19.5,63.2,29.3c-2.9-23.2-5.8-46.4-8.8-69.6c16.1-17.2,32.5-34.1,48.5-51.4c-23.3-4.4-46.6-8.7-69.8-13.3
		c-10.8-19.7-21.9-39.3-32.8-59C279,192.2,278.5,191.5,277.9,190.8z"/>
</g>
</svg>
