<svg width="34" height="34" viewBox="0 0 34 34" fill="none" xmlns="http://www.w3.org/2000/svg">
<rect width="34" height="34" rx="10" fill="url(#paint0_linear_9203_330)"/>
<path d="M11 11.6298C11.2086 9.81518 12.3627 8.08401 14.1495 7.50695C16.3048 6.8117 18.905 6.71437 20.8864 7.96582C22.6732 9.27288 22.9235 11.6715 23 13.7155C21.3105 13.7155 19.6211 13.7225 17.9316 13.7155C17.7161 13.0689 17.737 12.0191 16.7567 12.2903C15.8806 13.2984 17.3476 14.1674 17.8969 14.9322C19.4612 16.2601 19.343 18.4293 19.343 20.2856C17.7231 20.2926 16.0962 20.2856 14.4762 20.2856C14.2955 19.2149 14.4137 17.9496 13.5446 17.1431C12.4253 15.9125 11.1877 14.6333 11 12.8882V11.6298Z" fill="white"/>
<path d="M15.5191 21.6435C17.2573 21.0525 20.0452 21.6157 19.8783 23.9378C20.3998 27.0178 15.5887 27.9355 14.2746 25.5508C13.7949 24.2159 13.8853 22.1163 15.5191 21.6435Z" fill="white"/>
<defs>
<linearGradient id="paint0_linear_9203_330" x1="17" y1="5.06639e-07" x2="17" y2="34" gradientUnits="userSpaceOnUse">
<stop stop-color="#82F97F"/>
<stop offset="1" stop-color="#1AEA15"/>
</linearGradient>
</defs>
</svg>
