<svg id="Layer_1" enable-background="new 0 0 512 512" height="512" viewBox="0 0 512 512" width="512"
    xmlns="http://www.w3.org/2000/svg">
    <path
        d="m492 288c11.046 0 20-8.954 20-20v-148c0-44.112-35.888-80-80-80h-352c-44.112 0-80 35.888-80 80v272c0 44.112 35.888 80 80 80h352c44.112 0 80-35.888 80-80v-4c0-6.055-2.743-11.784-7.46-15.581l-151.413-121.866 118.873-73.918v91.365c0 11.046 8.954 20 20 20zm-452-111.365 118.842 73.899-118.842 95.386zm431.651 220.66c-2.598 19.563-19.389 34.705-39.651 34.705h-352c-20.375 0-37.241-15.313-39.693-35.035l154.543-124.041 18.905 11.756c26.057 16.205 58.432 16.203 84.49 0l18.891-11.747zm-194.528-146.583c-13.029 8.102-29.216 8.102-42.245 0l-194.317-120.831c-.186-.116-.373-.227-.561-.336v-9.545c0-22.056 17.944-40 40-40h352c22.056 0 40 17.944 40 40v9.532z" />
</svg>