<?xml version="1.0" encoding="UTF-8" ?>
<!DOCTYPE svg PUBLIC "-//W3C//DTD SVG 1.1//EN" "http://www.w3.org/Graphics/SVG/1.1/DTD/svg11.dtd">
<svg width="158pt" height="89pt" viewBox="0 0 158 89" version="1.1" xmlns="http://www.w3.org/2000/svg">
<g id="#edf8f6ff">
<path fill="#edf8f6" opacity="1.00" d=" M 42.52 0.00 L 44.68 0.00 C 50.73 0.18 56.70 1.67 62.21 4.17 C 55.72 6.33 49.56 9.86 45.07 15.08 C 36.26 25.23 34.63 41.01 41.22 52.72 C 43.18 57.22 47.68 59.92 50.04 64.02 C 49.39 69.14 48.01 74.13 47.21 79.23 C 51.97 76.35 56.14 72.54 61.11 70.03 C 66.85 68.95 72.76 70.45 78.54 69.40 C 71.26 78.97 60.11 85.61 48.07 86.75 C 33.99 88.37 19.39 82.46 10.31 71.61 C 4.20 64.53 0.75 55.43 0.00 46.15 L 0.00 42.63 C 0.19 31.51 4.86 20.60 12.74 12.76 C 20.54 4.88 31.44 0.24 42.52 0.00 Z" />
<path fill="#edf8f6" opacity="1.00" d=" M 48.13 23.02 C 52.80 14.93 62.02 10.07 71.26 9.95 C 80.24 17.36 85.69 28.34 87.06 39.82 C 76.12 40.32 65.17 39.89 54.23 40.06 C 54.55 44.15 55.60 48.37 58.65 51.32 C 64.25 57.90 75.23 58.43 81.62 52.73 C 84.23 50.65 85.86 47.66 87.07 44.61 C 86.75 49.88 85.70 55.10 83.83 60.04 C 77.24 63.60 69.22 64.25 62.12 61.91 C 55.47 59.50 49.79 54.44 46.80 48.01 C 42.92 40.17 43.52 30.42 48.13 23.02 Z" />
<path fill="#edf8f6" opacity="1.00" d=" M 118.50 24.73 C 125.05 22.05 133.13 26.88 133.86 33.91 C 135.09 40.77 128.84 47.57 121.90 46.96 C 115.37 46.82 109.98 40.27 111.15 33.82 C 111.69 29.75 114.65 26.14 118.50 24.73 Z" />
</g>
<g id="#7ad4c8ff">
<path fill="#7ad4c8" opacity="1.00" d=" M 62.21 4.17 C 66.91 3.19 71.80 2.75 76.55 3.66 C 90.92 6.03 103.00 18.53 104.27 33.13 C 106.44 49.43 94.58 65.99 78.54 69.40 C 72.76 70.45 66.85 68.95 61.11 70.03 C 56.14 72.54 51.97 76.35 47.21 79.23 C 48.01 74.13 49.39 69.14 50.04 64.02 C 47.68 59.92 43.18 57.22 41.22 52.72 C 34.63 41.01 36.26 25.23 45.07 15.08 C 49.56 9.86 55.72 6.33 62.21 4.17 M 48.13 23.02 C 43.52 30.42 42.92 40.17 46.80 48.01 C 49.79 54.44 55.47 59.50 62.12 61.91 C 69.22 64.25 77.24 63.60 83.83 60.04 C 94.18 54.33 99.89 41.51 96.67 30.03 C 93.79 18.69 82.97 10.16 71.26 9.95 C 62.02 10.07 52.80 14.93 48.13 23.02 Z" />
<path fill="#7ad4c8" opacity="1.00" d=" M 54.23 40.06 C 65.17 39.89 76.12 40.32 87.06 39.82 L 87.28 40.90 C 87.25 42.14 87.18 43.37 87.07 44.61 C 85.86 47.66 84.23 50.65 81.62 52.73 C 75.23 58.43 64.25 57.90 58.65 51.32 C 55.60 48.37 54.55 44.15 54.23 40.06 Z" />
<path fill="#7ad4c8" opacity="1.00" d=" M 104.22 56.22 C 106.98 56.20 109.75 56.20 112.51 56.20 C 112.54 59.53 112.54 62.86 112.54 66.19 C 115.86 66.21 119.19 66.21 122.51 66.20 C 122.54 68.97 122.54 71.75 122.52 74.53 C 119.19 74.53 115.86 74.53 112.54 74.55 C 112.53 77.78 112.53 81.02 112.52 84.26 C 109.75 84.27 106.98 84.27 104.21 84.25 C 104.20 81.02 104.21 77.78 104.19 74.54 C 100.95 74.53 97.71 74.53 94.48 74.52 C 94.46 71.75 94.46 68.98 94.49 66.20 C 97.72 66.20 100.96 66.21 104.19 66.19 C 104.20 62.87 104.20 59.54 104.22 56.22 Z" />
</g>
</svg>
