<svg width="29" height="29" viewBox="0 0 29 29" fill="none" xmlns="http://www.w3.org/2000/svg">
<path d="M23.5569 13.6974C22.8989 16.2182 21.5269 18.6497 19.7535 20.4232C17.9354 22.2413 15.8719 23.3455 13.7973 23.6132C13.7639 23.6132 13.7192 23.6243 13.6858 23.6243C13.2396 23.6243 12.8604 23.3009 12.8046 22.8436C12.7377 22.3528 13.0835 21.9066 13.5742 21.8397C15.2585 21.6166 16.965 20.6909 18.4931 19.1516C20.0323 17.6124 21.1589 15.6605 21.7389 13.5636C22.3189 11.5001 22.0065 9.33626 23.6462 7.69664L24.4046 6.93818C24.8619 6.48087 25.5423 6.2801 26.1558 6.48087C26.4123 6.55895 26.68 6.59241 26.97 6.5701C27.8958 6.48087 28.6542 5.73356 28.7546 4.8078C28.8885 3.59203 27.9404 2.56587 26.7581 2.56587C26.5796 2.56587 26.4346 2.45433 26.4346 2.2201C26.4346 1.0378 25.4085 0.0897183 24.1927 0.223565C23.2669 0.323949 22.5196 1.08241 22.4304 2.00818C22.3969 2.28703 22.4304 2.56587 22.5085 2.82241C22.6981 3.43587 22.5085 4.11626 22.0512 4.57356L21.315 5.32087C20.4004 6.23549 19.1846 6.77087 17.8908 6.81549C15.3142 6.92703 12.0573 8.27664 9.82655 10.5074C9.43616 10.8978 9.10155 11.2882 8.78924 11.6897C8.68885 11.8236 8.56616 11.9239 8.41001 11.9797C3.6027 13.9874 0.223083 18.7389 0.223083 24.2824V24.762C0.223083 26.9816 2.01885 28.7774 4.23847 28.7774H24.7615C26.9812 28.7774 28.7769 26.9816 28.7769 24.762V24.2824C28.7769 19.977 26.7246 16.1401 23.5569 13.6974ZM10.4846 15.1474L10.3285 15.3816C10.1946 15.5713 9.9827 15.6828 9.77078 15.6828C9.64808 15.6828 9.51424 15.6493 9.4027 15.5713C9.09039 15.3705 9.01231 14.9466 9.21308 14.6455L9.36924 14.4113C9.57001 14.0989 9.99385 14.0209 10.295 14.2216C10.6073 14.4224 10.6854 14.8351 10.4846 15.1474ZM11.8231 13.2401C11.6892 13.4186 11.4885 13.5078 11.2877 13.5078C11.1427 13.5078 11.0089 13.4632 10.8862 13.3739C10.5962 13.1509 10.5292 12.727 10.7523 12.437C12.8046 9.73779 16.0169 8.97933 16.1508 8.94587C16.5077 8.86779 16.8758 9.09087 16.9539 9.44779C17.0319 9.80472 16.8089 10.1616 16.4519 10.2509C16.4408 10.2509 15.7158 10.4293 14.7789 10.8866C13.8531 11.3439 12.7042 12.0913 11.8231 13.2401Z" fill="black"/>
</svg>
