<svg viewBox="0 0 103 103" fill="none" xmlns="http://www.w3.org/2000/svg">
<rect fill="white" height="103" width="103" />
<path d="M36.2 10.0C38.7 12.2 40.7 15.4 43.9 17.0C48.1 19.9 53.3 18.7 58.0 19.4C62.7 20.0 67.2 21.6 71.1 24.0C71.1 23.2 71.0 21.5 71.0 20.6C72.9 20.6 74.0 22.3 74.1 24.1C75.5 24.5 76.9 25.0 77.9 26.2C77.1 27.0 76.0 27.3 74.6 27.0C76.1 29.5 78.0 32.0 78.2 35.0C78.6 41.2 76.6 47.2 74.3 52.8C72.4 51.2 69.7 50.2 67.4 51.5C63.5 53.3 62.5 58.2 63.8 62.0C63.4 62 62.6 61.9 62.2 61.8C62.3 57.5 62.3 53.2 63 49.0C63.2 46.3 64.0 43.1 62.2 40.7C60.8 38.8 58.1 38.7 55.9 38.8C48.6 38.9 41.3 38.4 34.0 38.8C29.0 42.0 29.2 48.6 27.4 53.6C25.3 45.7 22.8 36.8 26.4 29.0C24.8 24.7 24.6 18.6 29.0 15.8C30.4 17.5 32.5 18.5 34.7 18.1C33.3 15.4 33.8 12.1 36.2 10.0Z" fill="#606161"/>
<path d="M88.2 29.3C89.6 29.3 89.4 31.9 88.6 32.7C87.2 32.6 87.5 30.1 88.2 29.3Z" fill="#AED8FD"/>
<path d="M15.1 36.8C12.5 34.6 16.2 31.1 18.6 33.2C20.3 35.6 17.5 38.7 15.1 36.8Z" fill="#AED8FD"/>
<path d="M83.3 34.3C84.1 33.5 86.6 33.3 86.7 34.7C85.9 35.4 83.3 35.7 83.3 34.3Z" fill="#AED8FD"/>
<path d="M90.3 34.2C91.1 33.5 93.7 33.3 93.6 34.7C92.8 35.3 90.3 35.6 90.3 34.2Z" fill="#AED8FD"/>
<path d="M88.2 36.2C89.7 36.3 89.4 38.8 88.6 39.6C87.2 39.6 87.5 37.0 88.2 36.2Z" fill="#AED8FD"/>
<path d="M14.2 61.3C15.7 59.8 18.2 62.1 16.4 63.4C15.2 64.8 13.1 62.5 14.2 61.3Z" fill="#AED8FD"/>
<path d="M11.2 64.2C12.5 63.1 14.7 65.1 13.4 66.3C12.1 68.2 9.7 65.6 11.2 64.2Z" fill="#AED8FD"/>
<path d="M18.2 64.1C20.1 63.1 21 66.7 19.0 67.0C17.3 67.3 16.3 64.7 18.2 64.1Z" fill="#AED8FD"/>
<path d="M15.1 67.2C16.9 66.7 17.9 69.8 15.9 70.1C13.8 70.7 13.2 67.6 15.1 67.2Z" fill="#AED8FD"/>
<path d="M27.4 53.6C29.2 48.6 29.0 42.0 34.0 38.8C41.3 38.4 48.6 38.9 55.9 38.8C58.1 38.7 60.8 38.8 62.2 40.7C64.0 43.1 63.2 46.3 63 49.0C62.3 53.2 62.3 57.5 62.2 61.8C62.6 61.9 63.4 62 63.8 62.0C62.5 58.2 63.5 53.3 67.4 51.5C69.7 50.2 72.4 51.2 74.3 52.8C75.6 55.5 76.6 58.9 74.6 61.6C72.8 63.8 71.2 66.3 70.0 68.9C67.3 74.4 61.7 77.4 56.2 79.3C55.7 80.9 55.2 83.2 57.1 84.2C53.6 87.4 48.4 87.8 44.0 86.8C42.7 86.6 42.3 85.3 42.0 84.3C43.8 83.0 43.6 80.2 41.3 79.7C36.2 77.6 31.1 74.3 28.9 69.0C26.6 64.1 28.2 58.7 27.4 53.6Z" fill="#FEE8D7"/>
<path d="M85.1 59.2C87.5 58.0 90.5 60.4 89.9 63.0C89.7 65.7 85.9 67.0 84.0 65.0C82.1 63.4 82.8 60.0 85.1 59.2ZM84.7 63C85.5 65.9 89.8 63.4 87.9 61.0C86.3 60.2 84.1 60.8 84.7 63Z" fill="#7CA3D7"/>
<path d="M31.0 89.0C33.7 85.7 38.3 85.7 42.0 84.3C42.3 85.3 42.7 86.6 44.0 86.8C48.4 87.8 53.6 87.4 57.1 84.2C60.0 84.6 63.0 85.1 65.8 86.1C70.4 87.9 73.7 91.9 75.7 96.3L75.7 96.4C61.2 104.2 43.0 104.3 28.3 96.8C29.4 94.3 29.0 91.1 31.0 89.0Z" fill="#7CA3D7"/>
</svg>
