<?xml version="1.0" encoding="utf-8"?>
<!-- Generator: Adobe Illustrator 23.1.0, SVG Export Plug-In . SVG Version: 6.00 Build 0)  -->
<svg version="1.1" id="Layer_1" xmlns="http://www.w3.org/2000/svg" xmlns:xlink="http://www.w3.org/1999/xlink" x="0px" y="0px"
	 viewBox="0 0 582 582" style="enable-background:new 0 0 582 582;" xml:space="preserve">
<linearGradient id="SVGID_1_" gradientUnits="userSpaceOnUse" x1="291" y1="790" x2="291" y2="208" gradientTransform="matrix(1 0 0 1 0 -208)">
	<stop  offset="0" style="stop-color:#FE61A3"/>
	<stop  offset="1" style="stop-color:#FF90B5"/>
</linearGradient>
<path style="fill:url(#SVGID_1_);" d="M388.1,582H193.9C86.8,582,0,495.2,0,388.1V193.9C0,86.8,86.8,0,193.9,0h194.2
	C495.2,0,582,86.8,582,193.9v194.2C582,495.2,495.2,582,388.1,582z"/>
<g>
	<path style="fill:#FEFEFE;" d="M223.1,169.6h100.8c34.3-0.3,89-6.2,96.3,42.5v145.4c-5.8,18.6-19.8,35.2-38.9,37.2
		c-32.9,2.6-66.1,0.3-99.1,1c-18.7,19-36.1,39.5-55.2,58.1c-1.4,1.4-3.2,2.1-5.2,2.1h-3.2c-3.1,0-5.7-2.4-6-5.4
		c-1.7-17.7-1.5-35.6-1-53.4c-15.6-1.8-33.1-3.5-44.3-16.8c-14-13.6-13-35.2-14.2-53.7v-59.3c0.4-12.9,1.1-38.8,1.5-51.7
		C156.7,178.9,194.2,166.1,223.1,169.6 M173.5,223.6c0.4,42.9-0.8,85.9,0.6,128.7c5.4,25,30.9,22.9,49.9,24.2c2,0.1,3.8,1.4,4.7,3.2
		c5.1,11.4,1,25.7,0.1,38.4c-0.1,1.8,2,2.7,3.3,1.5c14.1-13.3,26.7-28.2,40.3-42.2c1.3-1.4,3.1-2.1,5-2.1
		c33.1-0.3,66.1,0.7,99.2-0.4c15.7-0.7,27.8-17.7,25.7-34.2c-0.1-39,0.1-77.9-0.1-116.9c1.7-16.2-11.6-32.9-27.1-32.2
		c-57.2-0.5-114.4-0.2-171.6-0.1C186.9,189.4,171.4,205.9,173.5,223.6z"/>
</g>
<path style="fill:#FEFEFE;" d="M344.2,277.9h-119c-7.2,0-13-5.8-13-13l0,0c0-7.2,5.8-13,13-13h119c7.2,0,13,5.8,13,13l0,0
	C357.2,272.1,351.4,277.9,344.2,277.9z"/>
<path style="fill:#FEFEFE;" d="M344.2,324.5h-119c-7.2,0-13-5.8-13-13l0,0c0-7.2,5.8-13,13-13h119c7.2,0,13,5.8,13,13l0,0
	C357.2,318.7,351.4,324.5,344.2,324.5z"/>
</svg>
