<?xml version="1.0" encoding="UTF-8" ?>
<!DOCTYPE svg PUBLIC "-//W3C//DTD SVG 1.1//EN" "http://www.w3.org/Graphics/SVG/1.1/DTD/svg11.dtd">
<svg width="162pt" height="167pt" viewBox="0 0 162 167" version="1.1" xmlns="http://www.w3.org/2000/svg">
<g id="#ffa0a0ff">
<path fill="#ffa0a0" opacity="1.00" d=" M 136.22 1.05 C 141.55 -2.14 149.66 3.54 147.21 9.73 C 146.38 14.54 140.56 17.04 136.43 14.51 C 130.75 12.38 131.25 3.67 136.22 1.05 M 138.46 4.53 C 136.13 5.46 135.52 8.87 137.47 10.51 C 139.27 12.33 142.75 11.40 143.39 8.91 C 144.47 6.10 141.10 3.16 138.46 4.53 Z" />
<path fill="#ffa0a0" opacity="1.00" d=" M 6.09 68.96 C 6.29 68.03 6.49 67.10 6.70 66.18 C 7.30 66.65 8.50 67.61 9.10 68.09 C 8.10 68.39 7.10 68.68 6.09 68.96 Z" />
<path fill="#ffa0a0" opacity="1.00" d=" M 1.46 69.51 C 2.01 68.62 2.56 67.73 3.11 66.84 C 3.42 67.84 3.72 68.83 4.01 69.83 C 3.37 69.75 2.10 69.59 1.46 69.51 Z" />
<path fill="#ffa0a0" opacity="1.00" d=" M 7.02 71.08 C 7.73 71.22 9.15 71.50 9.86 71.64 C 9.20 72.42 8.53 73.20 7.85 73.98 C 7.57 73.01 7.29 72.05 7.02 71.08 Z" />
<path fill="#ffa0a0" opacity="1.00" d=" M 1.99 72.94 C 2.91 72.60 3.82 72.26 4.74 71.92 C 4.74 72.57 4.74 73.87 4.75 74.52 C 3.83 73.99 2.91 73.47 1.99 72.94 Z" />
</g>
<g id="#f75454f7">
<path fill="#f75454" opacity="0.97" d=" M 8.92 1.90 C 9.44 1.99 10.48 2.18 11.00 2.27 C 11.52 4.85 11.23 7.51 11.09 10.11 C 10.56 10.02 9.52 9.84 9.00 9.76 C 8.48 7.17 8.77 4.51 8.92 1.90 Z" />
<path fill="#f75454" opacity="0.97" d=" M 0.00 10.85 C 2.53 10.78 5.10 10.54 7.61 10.99 C 7.78 11.52 8.11 12.59 8.27 13.13 C 5.52 13.25 2.76 13.25 0.00 13.20 L 0.00 10.85 Z" />
<path fill="#f75454" opacity="0.97" d=" M 11.88 10.90 C 14.62 10.69 17.36 10.69 20.09 10.91 C 20.00 11.43 19.82 12.47 19.73 13.00 C 17.27 13.44 14.71 13.43 12.25 13.00 C 12.15 12.48 11.97 11.43 11.88 10.90 Z" />
<path fill="#f75454" opacity="0.97" d=" M 9.00 14.24 C 9.52 14.15 10.57 13.98 11.10 13.89 C 11.31 16.62 11.31 19.36 11.09 22.09 C 10.57 22.00 9.53 21.83 9.01 21.74 C 8.55 19.27 8.58 16.71 9.00 14.24 Z" />
</g>
<g id="#ff965cff">
<path fill="#ff965c" opacity="1.00" d=" M 61.30 12.41 C 63.21 10.54 65.75 14.23 63.54 15.43 C 61.71 16.91 59.40 13.78 61.30 12.41 Z" />
<path fill="#ff965c" opacity="1.00" d=" M 57.49 16.64 C 59.73 16.07 60.73 19.66 58.48 20.27 C 56.14 21.30 54.81 17.05 57.49 16.64 Z" />
<path fill="#ff965c" opacity="1.00" d=" M 66.49 16.74 C 67.77 16.16 69.59 17.55 68.91 18.95 C 68.87 20.41 66.99 20.62 65.96 20.10 C 64.91 19.18 64.96 17.07 66.49 16.74 Z" />
<path fill="#ff965c" opacity="1.00" d=" M 61.41 21.52 C 62.52 20.79 64.44 21.51 64.35 22.96 C 64.71 24.57 62.41 25.76 61.31 24.59 C 60.26 23.86 60.48 22.24 61.41 21.52 Z" />
<path fill="#ff965c" opacity="1.00" d=" M 56.49 70.59 C 62.18 58.23 77.72 51.28 90.60 56.17 C 99.47 58.59 106.54 65.98 109.18 74.71 C 110.82 79.96 110.39 85.52 110.51 90.94 C 114.05 91.08 117.77 90.36 121.18 91.62 C 124.90 93.09 127.37 96.99 127.20 100.99 C 127.45 119.03 127.75 137.07 127.96 155.10 C 127.91 160.06 124.25 165.13 118.98 165.20 C 95.65 165.62 72.31 165.83 48.98 166.10 C 43.75 166.36 38.33 162.45 38.33 156.91 C 37.97 139.28 37.84 121.63 37.51 104.00 C 37.39 100.24 38.21 95.87 41.49 93.58 C 45.04 90.93 49.71 91.91 53.83 91.67 C 53.63 84.59 53.10 77.09 56.49 70.59 M 70.06 73.12 C 65.55 78.17 66.62 85.30 66.68 91.51 C 77.00 91.37 87.32 91.27 97.63 91.11 C 97.53 84.97 98.41 77.93 93.89 73.01 C 88.13 65.64 75.75 65.68 70.06 73.12 M 71.19 129.05 C 71.23 134.09 74.79 138.37 79.25 140.37 C 79.47 145.35 79.14 150.36 79.72 155.32 C 82.54 155.26 85.37 155.23 88.19 155.12 C 88.31 150.16 88.12 145.20 88.08 140.25 C 92.04 138.32 95.34 134.67 95.75 130.14 C 96.77 123.26 90.86 116.48 83.93 116.42 C 77.08 115.98 70.78 122.20 71.19 129.05 Z" />
<path fill="#ff965c" opacity="1.00" d=" M 155.22 72.73 C 154.57 70.78 156.66 69.09 157.42 67.37 C 157.79 67.62 158.53 68.11 158.91 68.35 C 157.71 69.77 157.41 72.74 155.22 72.73 Z" />
<path fill="#ff965c" opacity="1.00" d=" M 148.13 71.06 C 148.44 70.71 149.06 70.02 149.37 69.68 C 150.56 70.96 154.47 71.32 153.25 73.67 C 151.37 73.20 149.77 72.04 148.13 71.06 Z" />
<path fill="#ff965c" opacity="1.00" d=" M 155.92 73.83 C 157.81 74.87 161.11 75.29 161.05 78.03 C 159.02 77.22 155.67 76.67 155.92 73.83 Z" />
<path fill="#ff965c" opacity="1.00" d=" M 150.45 79.34 C 151.73 77.85 152.13 74.29 154.72 75.22 C 153.92 76.95 153.00 78.63 152.06 80.29 C 151.66 80.05 150.86 79.58 150.45 79.34 Z" />
</g>
</svg>
