<?xml version="1.0" encoding="UTF-8" ?>
<!DOCTYPE svg PUBLIC "-//W3C//DTD SVG 1.1//EN" "http://www.w3.org/Graphics/SVG/1.1/DTD/svg11.dtd">
<svg width="246pt" height="246pt" viewBox="0 0 246 246" version="1.1" xmlns="http://www.w3.org/2000/svg">
<g id="#ffffffff">
<path fill="#ffffff" opacity="1.00" d=" M 48.50 0.00 L 196.30 0.00 C 209.24 0.32 221.93 5.76 231.05 14.94 C 239.99 23.76 245.29 35.98 246.00 48.49 L 246.00 197.41 C 245.24 212.33 237.74 226.85 225.64 235.70 C 217.81 241.83 208.06 245.15 198.21 246.00 L 48.11 246.00 C 35.99 245.20 24.21 240.11 15.51 231.61 C 6.23 222.74 0.70 210.25 0.00 197.46 L 0.00 48.58 C 0.62 37.94 4.44 27.47 11.16 19.17 C 20.13 7.83 34.08 0.76 48.50 0.00 M 37.04 10.04 C 19.25 17.46 6.50 35.66 6.06 55.00 C 6.01 65.95 5.87 76.92 6.12 87.87 C 5.79 118.89 6.11 149.93 5.99 180.97 C 5.99 186.65 5.78 192.40 7.01 197.99 C 10.29 215.57 23.77 231.02 40.89 236.30 C 43.32 237.45 46.03 238.05 48.67 237.34 C 51.03 239.25 54.13 238.88 56.97 238.99 C 68.88 238.99 80.78 239.04 92.68 238.97 C 98.72 239.01 104.77 239.04 110.81 238.96 C 126.38 239.03 141.95 239.03 157.52 238.96 C 161.10 239.04 164.69 239.02 168.28 238.96 C 177.09 238.92 185.92 239.31 194.71 238.63 C 206.93 237.07 218.41 230.75 226.45 221.42 C 235.21 211.72 239.60 198.36 238.95 185.37 C 239.06 142.24 238.99 99.11 238.98 55.98 C 238.91 35.24 224.65 15.62 205.07 8.93 C 195.50 5.29 185.11 5.97 175.07 6.07 C 136.06 5.90 97.04 6.05 58.03 5.99 C 50.85 5.91 43.65 7.23 37.04 10.04 Z" />
</g>
<g id="#fdd5d5ff">
<path fill="#fdd5d5" opacity="1.00" d=" M 37.04 10.04 C 43.65 7.23 50.85 5.91 58.03 5.99 C 97.04 6.05 136.06 5.90 175.07 6.07 C 173.73 15.00 173.02 24.13 169.66 32.60 C 167.02 39.37 165.42 47.02 160.31 52.44 C 154.52 48.20 155.27 39.61 149.33 35.58 C 143.57 31.17 136.18 29.29 128.98 29.78 C 122.88 29.43 116.67 32.05 112.88 36.88 C 107.62 44.00 105.86 52.83 103.16 61.07 C 102.23 64.59 98.37 65.92 95.08 65.21 C 85.69 63.63 76.22 67.20 68.57 72.47 C 64.40 75.51 60.15 79.63 59.71 85.07 C 59.28 90.30 64.17 93.40 66.58 97.44 C 68.20 100.36 70.11 103.58 69.49 107.07 C 47.04 107.37 24.61 100.61 6.12 87.87 C 5.87 76.92 6.01 65.95 6.06 55.00 C 6.50 35.66 19.25 17.46 37.04 10.04 Z" />
</g>
<g id="#feccccff">
<path fill="#fecccc" opacity="1.00" d=" M 175.07 6.07 C 185.11 5.97 195.50 5.29 205.07 8.93 C 224.65 15.62 238.91 35.24 238.98 55.98 C 238.99 99.11 239.06 142.24 238.95 185.37 C 222.88 187.20 206.53 185.01 191.25 179.84 C 196.56 171.80 196.72 161.73 196.31 152.44 C 200.70 153.85 205.23 154.96 209.86 154.98 C 215.81 155.45 222.16 154.69 227.10 151.11 C 234.70 144.49 238.13 133.84 237.08 123.97 C 235.21 109.37 221.35 98.25 207.06 97.19 C 202.29 96.94 197.34 93.89 196.50 88.90 C 195.07 83.39 199.36 78.52 198.57 73.04 C 197.78 65.87 194.80 58.51 189.13 53.83 C 186.11 51.26 181.63 51.01 178.29 53.11 C 172.83 56.37 165.25 57.01 160.31 52.44 C 165.42 47.02 167.02 39.37 169.66 32.60 C 173.02 24.13 173.73 15.00 175.07 6.07 Z" />
</g>
<g id="#b58ac5ff">
<path fill="#b58ac5" opacity="1.00" d=" M 112.88 36.88 C 116.67 32.05 122.88 29.43 128.98 29.78 C 136.18 29.29 143.57 31.17 149.33 35.58 C 155.27 39.61 154.52 48.20 160.31 52.44 C 165.25 57.01 172.83 56.37 178.29 53.11 C 181.63 51.01 186.11 51.26 189.13 53.83 C 194.80 58.51 197.78 65.87 198.57 73.04 C 199.36 78.52 195.07 83.39 196.50 88.90 C 197.34 93.89 202.29 96.94 207.06 97.19 C 221.35 98.25 235.21 109.37 237.08 123.97 C 238.13 133.84 234.70 144.49 227.10 151.11 C 222.16 154.69 215.81 155.45 209.86 154.98 C 213.67 151.27 218.05 147.35 218.59 141.71 C 220.31 130.18 210.90 119.43 199.90 117.29 C 192.97 115.65 185.97 117.54 179.16 118.80 C 172.41 119.36 165.14 118.55 159.58 114.36 C 152.36 109.11 149.27 99.57 150.47 90.92 C 150.92 88.45 150.32 85.31 147.69 84.35 C 142.92 82.85 137.82 84.53 133.34 86.26 C 130.94 96.70 125.72 107.77 115.33 112.26 C 112.76 106.78 107.36 101.84 100.92 102.63 C 97.45 103.42 97.02 107.59 96.38 110.48 C 87.03 107.62 77.98 103.57 69.78 98.21 C 68.85 97.52 67.73 97.20 66.58 97.44 C 64.17 93.40 59.28 90.30 59.71 85.07 C 60.15 79.63 64.40 75.51 68.57 72.47 C 76.22 67.20 85.69 63.63 95.08 65.21 C 98.37 65.92 102.23 64.59 103.16 61.07 C 105.86 52.83 107.62 44.00 112.88 36.88 Z" />
</g>
<g id="#f7d19fff">
<path fill="#f7d19f" opacity="1.00" d=" M 133.34 86.26 C 137.82 84.53 142.92 82.85 147.69 84.35 C 150.32 85.31 150.92 88.45 150.47 90.92 C 149.27 99.57 152.36 109.11 159.58 114.36 C 165.14 118.55 172.41 119.36 179.16 118.80 C 179.20 129.06 176.90 139.18 173.60 148.84 C 170.84 156.63 167.42 164.39 161.87 170.62 C 155.19 175.95 145.70 173.90 138.14 171.78 C 127.15 166.12 115.49 159.66 109.51 148.30 C 109.92 145.21 109.77 142.10 109.62 139.01 C 110.31 138.86 111.69 138.56 112.38 138.40 C 113.57 129.72 114.11 120.94 115.33 112.26 C 125.72 107.77 130.94 96.70 133.34 86.26 Z" />
<path fill="#f7d19f" opacity="1.00" d=" M 105.54 175.68 C 106.64 171.85 107.00 167.88 107.67 163.97 C 107.20 167.34 108.94 170.49 110.85 173.13 C 115.29 179.13 122.14 183.02 129.40 184.47 C 128.95 185.96 127.57 186.57 126.11 186.21 C 122.70 185.90 118.86 186.17 115.99 183.96 C 112.44 181.29 109.08 178.37 105.54 175.68 Z" />
</g>
<g id="#f4d8ffff">
<path fill="#f4d8ff" opacity="1.00" d=" M 6.12 87.87 C 24.61 100.61 47.04 107.37 69.49 107.07 C 67.53 109.67 63.91 109.58 61.01 110.15 C 53.72 111.12 45.68 111.85 39.92 116.95 C 35.67 120.68 34.01 126.83 35.75 132.20 C 38.80 142.48 46.11 150.92 54.09 157.82 C 61.69 164.07 70.84 169.65 81.01 169.52 C 87.75 169.56 94.84 169.15 100.87 165.84 C 104.03 164.15 106.37 161.36 108.31 158.42 C 108.21 160.28 108.01 162.13 107.67 163.97 C 107.00 167.88 106.64 171.85 105.54 175.68 C 102.96 173.70 100.37 171.33 96.99 170.93 C 86.64 169.40 75.51 172.62 67.94 179.95 C 64.81 183.00 61.51 186.52 60.87 191.03 C 60.54 193.20 62.83 193.71 64.32 194.45 C 63.77 196.59 63.26 198.74 62.84 200.91 C 61.51 205.44 56.64 207.35 54.25 211.22 C 48.86 219.03 45.27 227.90 40.89 236.30 C 23.77 231.02 10.29 215.57 7.01 197.99 C 5.78 192.40 5.99 186.65 5.99 180.97 C 6.11 149.93 5.79 118.89 6.12 87.87 Z" />
</g>
<g id="#9e72b2ff">
<path fill="#9e72b2" opacity="1.00" d=" M 66.58 97.44 C 67.73 97.20 68.85 97.52 69.78 98.21 C 77.98 103.57 87.03 107.62 96.38 110.48 C 96.17 121.12 99.12 134.01 109.62 139.01 C 109.77 142.10 109.92 145.21 109.51 148.30 C 109.02 151.66 109.07 155.09 108.31 158.42 C 106.37 161.36 104.03 164.15 100.87 165.84 C 94.84 169.15 87.75 169.56 81.01 169.52 C 70.84 169.65 61.69 164.07 54.09 157.82 C 46.11 150.92 38.80 142.48 35.75 132.20 C 34.01 126.83 35.67 120.68 39.92 116.95 C 45.68 111.85 53.72 111.12 61.01 110.15 C 63.91 109.58 67.53 109.67 69.49 107.07 C 70.11 103.58 68.20 100.36 66.58 97.44 Z" />
<path fill="#9e72b2" opacity="1.00" d=" M 179.16 118.80 C 185.97 117.54 192.97 115.65 199.90 117.29 C 210.90 119.43 220.31 130.18 218.59 141.71 C 218.05 147.35 213.67 151.27 209.86 154.98 C 205.23 154.96 200.70 153.85 196.31 152.44 C 196.72 161.73 196.56 171.80 191.25 179.84 C 188.08 183.99 182.43 186.13 177.37 184.48 C 170.50 182.28 165.83 176.32 161.87 170.62 C 167.42 164.39 170.84 156.63 173.60 148.84 C 176.90 139.18 179.20 129.06 179.16 118.80 Z" />
</g>
<g id="#f69290ff">
<path fill="#f69290" opacity="1.00" d=" M 96.38 110.48 C 97.02 107.59 97.45 103.42 100.92 102.63 C 107.36 101.84 112.76 106.78 115.33 112.26 C 114.11 120.94 113.57 129.72 112.38 138.40 C 111.69 138.56 110.31 138.86 109.62 139.01 C 99.12 134.01 96.17 121.12 96.38 110.48 Z" />
<path fill="#f69290" opacity="1.00" d=" M 108.31 158.42 C 109.07 155.09 109.02 151.66 109.51 148.30 C 115.49 159.66 127.15 166.12 138.14 171.78 C 137.74 172.34 136.95 173.45 136.55 174.01 C 132.26 175.80 131.49 180.84 129.40 184.47 C 122.14 183.02 115.29 179.13 110.85 173.13 C 108.94 170.49 107.20 167.34 107.67 163.97 C 108.01 162.13 108.21 160.28 108.31 158.42 Z" />
</g>
<g id="#ffbb81ff">
<path fill="#ffbb81" opacity="1.00" d=" M 67.94 179.95 C 75.51 172.62 86.64 169.40 96.99 170.93 C 100.37 171.33 102.96 173.70 105.54 175.68 C 109.08 178.37 112.44 181.29 115.99 183.96 C 118.86 186.17 122.70 185.90 126.11 186.21 C 127.57 186.57 128.95 185.96 129.40 184.47 C 131.49 180.84 132.26 175.80 136.55 174.01 C 140.15 176.17 142.08 180.03 143.02 184.00 C 143.75 187.63 143.68 191.35 143.07 194.99 C 148.14 209.53 155.39 223.54 157.52 238.96 C 141.95 239.03 126.38 239.03 110.81 238.96 C 111.14 229.28 111.71 219.60 111.56 209.91 C 111.49 203.85 108.06 198.17 103.08 194.84 C 98.35 191.67 92.77 189.75 87.14 189.07 C 80.51 189.11 73.87 189.04 67.24 189.26 C 65.79 190.67 65.14 192.65 64.32 194.45 C 62.83 193.71 60.54 193.20 60.87 191.03 C 61.51 186.52 64.81 183.00 67.94 179.95 Z" />
</g>
<g id="#e3efffff">
<path fill="#e3efff" opacity="1.00" d=" M 138.14 171.78 C 145.70 173.90 155.19 175.95 161.87 170.62 C 165.83 176.32 170.50 182.28 177.37 184.48 C 182.43 186.13 188.08 183.99 191.25 179.84 C 206.53 185.01 222.88 187.20 238.95 185.37 C 239.60 198.36 235.21 211.72 226.45 221.42 C 218.41 230.75 206.93 237.07 194.71 238.63 C 191.28 233.99 186.79 230.28 183.09 225.87 C 177.81 220.34 173.06 214.31 167.68 208.87 C 166.90 206.01 166.63 202.78 164.41 200.58 C 158.17 193.99 150.37 189.22 143.02 184.00 C 142.08 180.03 140.15 176.17 136.55 174.01 C 136.95 173.45 137.74 172.34 138.14 171.78 Z" />
</g>
<g id="#92b6e8ff">
<path fill="#92b6e8" opacity="1.00" d=" M 143.02 184.00 C 150.37 189.22 158.17 193.99 164.41 200.58 C 166.63 202.78 166.90 206.01 167.68 208.87 C 168.51 218.88 168.64 228.93 168.28 238.96 C 164.69 239.02 161.10 239.04 157.52 238.96 C 155.39 223.54 148.14 209.53 143.07 194.99 C 143.68 191.35 143.75 187.63 143.02 184.00 Z" />
<path fill="#92b6e8" opacity="1.00" d=" M 67.24 189.26 C 73.87 189.04 80.51 189.11 87.14 189.07 C 92.77 189.75 98.35 191.67 103.08 194.84 C 108.06 198.17 111.49 203.85 111.56 209.91 C 111.71 219.60 111.14 229.28 110.81 238.96 C 104.77 239.04 98.72 239.01 92.68 238.97 C 94.13 228.75 93.66 217.97 89.58 208.38 C 87.74 204.18 84.70 199.92 80.00 198.79 C 75.80 197.65 71.62 199.42 67.46 199.91 C 66.92 200.00 65.84 200.16 65.30 200.25 C 64.71 201.25 64.15 202.28 63.62 203.33 C 63.43 202.72 63.04 201.52 62.84 200.91 C 63.26 198.74 63.77 196.59 64.32 194.45 C 65.14 192.65 65.79 190.67 67.24 189.26 Z" />
</g>
<g id="#bad8ffff">
<path fill="#bad8ff" opacity="1.00" d=" M 67.46 199.91 C 71.62 199.42 75.80 197.65 80.00 198.79 C 84.70 199.92 87.74 204.18 89.58 208.38 C 93.66 217.97 94.13 228.75 92.68 238.97 C 80.78 239.04 68.88 238.99 56.97 238.99 C 54.13 238.88 51.03 239.25 48.67 237.34 C 46.03 238.05 43.32 237.45 40.89 236.30 C 45.27 227.90 48.86 219.03 54.25 211.22 C 56.64 207.35 61.51 205.44 62.84 200.91 C 63.04 201.52 63.43 202.72 63.62 203.33 C 62.28 206.53 60.37 209.49 59.32 212.81 C 59.50 213.16 59.84 213.86 60.01 214.21 C 62.32 213.96 62.65 211.35 63.68 209.72 C 65.03 206.50 67.42 203.54 67.46 199.91 M 56.08 219.12 C 54.12 222.64 52.45 226.32 50.77 229.98 C 50.16 230.93 50.33 232.05 51.16 232.80 C 52.99 232.61 53.49 230.66 54.22 229.30 C 55.67 225.93 57.62 222.76 58.72 219.25 C 58.13 218.25 56.63 217.81 56.08 219.12 Z" />
<path fill="#bad8ff" opacity="1.00" d=" M 167.68 208.87 C 173.06 214.31 177.81 220.34 183.09 225.87 C 186.79 230.28 191.28 233.99 194.71 238.63 C 185.92 239.31 177.09 238.92 168.28 238.96 C 168.64 228.93 168.51 218.88 167.68 208.87 Z" />
</g>
<g id="#eff8fcff">
<path fill="#eff8fc" opacity="1.00" d=" M 65.30 200.25 C 65.84 200.16 66.92 200.00 67.46 199.91 C 67.42 203.54 65.03 206.50 63.68 209.72 C 62.65 211.35 62.32 213.96 60.01 214.21 C 59.84 213.86 59.50 213.16 59.32 212.81 C 60.37 209.49 62.28 206.53 63.62 203.33 C 64.15 202.28 64.71 201.25 65.30 200.25 Z" />
</g>
<g id="#edf7fcff">
<path fill="#edf7fc" opacity="1.00" d=" M 56.08 219.12 C 56.63 217.81 58.13 218.25 58.72 219.25 C 57.62 222.76 55.67 225.93 54.22 229.30 C 53.49 230.66 52.99 232.61 51.16 232.80 C 50.33 232.05 50.16 230.93 50.77 229.98 C 52.45 226.32 54.12 222.64 56.08 219.12 Z" />
</g>
</svg>
