<?xml version="1.0" encoding="UTF-8" ?>
<!DOCTYPE svg PUBLIC "-//W3C//DTD SVG 1.1//EN" "http://www.w3.org/Graphics/SVG/1.1/DTD/svg11.dtd">
<svg width="473pt" height="245pt" viewBox="0 0 473 245" version="1.1" xmlns="http://www.w3.org/2000/svg">
<g id="#fff0f6ff">
<path fill="#fff0f6" opacity="1.00" d=" M 61.63 0.00 L 241.78 0.00 C 240.34 12.91 237.97 25.87 232.89 37.90 C 226.86 53.85 217.15 68.18 205.68 80.70 C 187.66 99.18 164.30 112.59 138.99 117.99 C 98.57 127.12 54.13 115.48 23.56 87.46 C 17.67 83.01 13.30 77.02 8.43 71.56 C 5.94 68.65 4.05 65.30 1.79 62.23 C 1.19 62.83 0.59 63.44 0.00 64.06 L 0.00 61.68 C 1.00 44.37 8.99 27.54 22.13 16.16 C 32.98 6.50 47.16 0.92 61.63 0.00 Z" />
</g>
<g id="#ffffffff">
<path fill="#ffffff" opacity="1.00" d=" M 241.78 0.00 L 411.17 0.00 C 424.47 0.80 437.55 5.50 448.02 13.79 C 447.95 64.65 448.05 115.51 447.97 166.37 C 443.12 159.18 438.12 152.09 432.22 145.70 C 421.98 136.11 410.27 127.83 396.93 123.17 C 366.34 111.25 329.83 116.82 304.00 137.00 C 299.39 141.07 294.09 144.47 290.50 149.57 C 267.57 174.83 259.79 212.78 271.09 245.00 L 61.81 245.00 C 47.52 244.17 33.49 238.73 22.66 229.30 C 8.61 217.38 0.15 199.24 0.00 180.81 L 0.00 64.06 C 0.59 63.44 1.19 62.83 1.79 62.23 C 4.05 65.30 5.94 68.65 8.43 71.56 C 13.30 77.02 17.67 83.01 23.56 87.46 C 54.13 115.48 98.57 127.12 138.99 117.99 C 164.30 112.59 187.66 99.18 205.68 80.70 C 217.15 68.18 226.86 53.85 232.89 37.90 C 237.97 25.87 240.34 12.91 241.78 0.00 Z" />
</g>
<g id="#ffb8d4ff">
<path fill="#ffb8d4" opacity="1.00" d=" M 448.02 13.79 C 462.74 25.14 471.92 43.03 473.00 61.55 L 473.00 180.85 C 472.86 200.27 463.41 219.31 448.05 231.18 C 447.91 209.58 448.07 187.97 447.97 166.37 C 448.05 115.51 447.95 64.65 448.02 13.79 Z" />
</g>
<g id="#fff4f8ff">
<path fill="#fff4f8" opacity="1.00" d=" M 304.00 137.00 C 329.83 116.82 366.34 111.25 396.93 123.17 C 410.27 127.83 421.98 136.11 432.22 145.70 C 438.12 152.09 443.12 159.18 447.97 166.37 C 448.07 187.97 447.91 209.58 448.05 231.18 C 437.64 239.45 424.63 244.14 411.40 245.00 L 271.09 245.00 C 259.79 212.78 267.57 174.83 290.50 149.57 C 294.09 144.47 299.39 141.07 304.00 137.00 Z" />
</g>
</svg>
