<?xml version="1.0" encoding="UTF-8" ?>
<!DOCTYPE svg PUBLIC "-//W3C//DTD SVG 1.1//EN" "http://www.w3.org/Graphics/SVG/1.1/DTD/svg11.dtd">
<svg width="136pt" height="105pt" viewBox="0 0 136 105" version="1.1" xmlns="http://www.w3.org/2000/svg">
<g id="#fe96c0ff">
<path fill="#fe96c0" opacity="1.00" d=" M 69.07 0.00 L 70.84 0.00 C 74.09 0.71 76.20 4.58 74.30 7.53 C 72.45 11.04 66.73 10.64 65.39 6.92 C 64.03 3.99 66.17 0.79 69.07 0.00 M 68.32 2.50 C 66.58 3.58 66.56 6.40 68.31 7.48 C 69.84 8.69 72.28 7.78 72.83 5.96 C 73.91 3.43 70.51 0.78 68.32 2.50 Z" />
<path fill="#fe96c0" opacity="1.00" d=" M 0.00 19.14 C 1.03 14.99 6.18 12.44 9.89 14.94 C 14.01 17.17 14.02 23.75 9.94 26.03 C 6.22 28.59 1.05 26.02 0.00 21.85 L 0.00 19.14 Z" />
<path fill="#fe96c0" opacity="1.00" d=" M 68.72 23.72 C 72.36 21.99 76.26 18.69 80.49 20.67 C 91.23 26.13 101.85 31.85 112.56 37.38 C 113.73 37.82 116.07 39.75 113.85 40.59 C 103.22 46.43 92.35 51.85 81.64 57.56 C 79.40 58.92 76.46 59.15 74.13 57.85 C 64.72 52.96 55.33 48.02 45.93 43.11 C 43.87 41.93 41.30 41.24 40.12 38.98 C 49.40 33.45 59.24 28.89 68.72 23.72 Z" />
<path fill="#fe96c0" opacity="1.00" d=" M 130.13 24.00 C 129.71 20.40 134.74 20.40 136.00 23.08 L 136.00 24.85 C 134.87 27.66 129.70 27.60 130.13 24.00 M 133.03 25.20 C 134.50 24.32 134.47 23.50 132.95 22.74 C 131.47 23.63 131.50 24.45 133.03 25.20 Z" />
<path fill="#fe96c0" opacity="1.00" d=" M 38.19 51.01 C 38.01 49.10 40.18 48.55 41.54 49.52 C 50.62 54.04 59.53 58.95 68.65 63.41 C 71.26 64.56 73.75 66.89 73.47 70.00 C 73.38 81.66 73.71 93.34 73.28 105.00 L 71.29 105.00 C 61.73 100.01 52.58 94.25 43.15 89.02 C 40.45 87.72 37.90 85.29 38.16 82.05 C 38.18 71.70 38.11 61.35 38.19 51.01 Z" />
<path fill="#fe96c0" opacity="1.00" d=" M 113.60 49.53 C 114.73 48.79 115.98 49.42 117.14 49.71 C 116.99 60.49 117.19 71.28 117.06 82.06 C 117.19 84.95 115.20 87.39 112.72 88.62 C 103.14 94.02 93.72 99.72 84.08 105.00 L 82.23 105.00 C 81.29 100.72 81.79 96.32 81.70 91.98 C 81.77 84.31 81.54 76.62 81.78 68.95 C 81.96 65.99 84.66 64.25 87.09 63.13 C 96.00 58.75 104.72 53.99 113.60 49.53 Z" />
<path fill="#fe96c0" opacity="1.00" d=" M 131.23 58.36 C 133.99 56.58 136.63 61.22 133.73 62.68 C 130.99 64.37 128.45 59.83 131.23 58.36 Z" />
<path fill="#fe96c0" opacity="1.00" d=" M 12.57 80.55 C 14.71 79.10 17.31 79.12 19.44 80.58 C 20.87 82.72 20.89 85.32 19.43 87.46 C 17.31 88.88 14.71 88.87 12.58 87.48 C 11.06 85.36 11.14 82.69 12.57 80.55 M 12.45 82.72 C 12.62 83.51 12.97 85.10 13.15 85.90 C 14.25 88.64 18.43 87.75 19.50 85.33 C 19.50 84.66 19.50 83.33 19.50 82.67 C 17.86 79.83 13.96 79.72 12.45 82.72 Z" />
</g>
</svg>
