<?xml version="1.0" encoding="UTF-8" ?>
<!DOCTYPE svg PUBLIC "-//W3C//DTD SVG 1.1//EN" "http://www.w3.org/Graphics/SVG/1.1/DTD/svg11.dtd">
<svg width="474pt" height="245pt" viewBox="0 0 474 245" version="1.1" xmlns="http://www.w3.org/2000/svg">
<g id="#f6f1fbff">
<path fill="#f6f1fb" opacity="1.00" d=" M 61.92 0.00 L 252.67 0.00 C 250.05 35.63 232.07 69.84 204.11 92.09 C 186.15 106.47 164.40 116.18 141.61 119.55 C 104.21 125.41 64.57 113.92 36.16 88.90 C 30.94 84.68 26.31 79.82 22.01 74.68 C 21.92 55.25 22.16 35.81 21.88 16.38 C 32.85 6.53 47.24 0.83 61.92 0.00 Z" />
</g>
<g id="#ffffffff">
<path fill="#ffffff" opacity="1.00" d=" M 252.67 0.00 L 411.73 0.00 C 426.87 0.72 441.74 6.74 452.88 17.07 C 466.05 28.99 473.88 46.52 474.00 64.28 L 474.00 166.73 C 467.63 156.55 460.37 146.63 450.78 139.25 C 435.95 126.70 417.08 119.24 397.80 117.37 C 365.55 114.24 331.98 128.55 312.43 154.50 C 292.63 179.57 286.49 214.79 297.08 245.00 L 62.21 245.00 C 47.44 244.28 32.94 238.53 21.90 228.64 C 22.13 177.33 21.93 126.00 22.01 74.68 C 26.31 79.82 30.94 84.68 36.16 88.90 C 64.57 113.92 104.21 125.41 141.61 119.55 C 164.40 116.18 186.15 106.47 204.11 92.09 C 232.07 69.84 250.05 35.63 252.67 0.00 Z" />
</g>
<g id="#d9b6ffff">
<path fill="#d9b6ff" opacity="1.00" d=" M 0.00 62.14 C 0.83 44.77 8.78 27.85 21.88 16.38 C 22.16 35.81 21.92 55.25 22.01 74.68 C 21.93 126.00 22.13 177.33 21.90 228.64 C 8.85 217.23 0.92 200.41 0.00 183.12 L 0.00 62.14 Z" />
</g>
<g id="#faf6ffff">
<path fill="#faf6ff" opacity="1.00" d=" M 312.43 154.50 C 331.98 128.55 365.55 114.24 397.80 117.37 C 417.08 119.24 435.95 126.70 450.78 139.25 C 460.37 146.63 467.63 156.55 474.00 166.73 L 474.00 180.76 C 473.86 197.79 466.67 214.60 454.45 226.46 C 443.22 237.57 427.83 244.15 412.09 245.00 L 297.08 245.00 C 286.49 214.79 292.63 179.57 312.43 154.50 Z" />
</g>
</svg>
