<?xml version="1.0" encoding="UTF-8" ?>
<!DOCTYPE svg PUBLIC "-//W3C//DTD SVG 1.1//EN" "http://www.w3.org/Graphics/SVG/1.1/DTD/svg11.dtd">
<svg width="139pt" height="98pt" viewBox="0 0 139 98" version="1.1" xmlns="http://www.w3.org/2000/svg">
<g id="#9f45ffff">
<path fill="#9f45ff" opacity="1.00" d=" M 67.08 0.00 L 68.83 0.00 C 72.10 0.69 74.20 4.60 72.29 7.56 C 70.55 10.77 65.41 10.76 63.69 7.53 C 61.83 4.60 63.88 0.77 67.08 0.00 M 66.32 2.50 C 64.57 3.59 64.57 6.42 66.33 7.50 C 67.87 8.67 70.26 7.78 70.82 5.98 C 71.93 3.46 68.52 0.78 66.32 2.50 Z" />
<path fill="#9f45ff" opacity="1.00" d=" M 0.00 11.08 C 1.06 6.96 6.19 4.42 9.87 6.92 C 14.06 9.15 14.04 15.81 9.89 18.07 C 6.20 20.59 1.10 18.04 0.00 13.93 L 0.00 11.08 Z" />
<path fill="#9f45ff" opacity="1.00" d=" M 43.79 28.76 C 51.52 20.49 64.21 17.41 74.87 21.26 C 84.70 24.48 92.02 33.24 94.39 43.19 C 87.91 43.21 81.44 43.16 74.97 43.18 C 70.64 42.61 70.21 48.02 68.26 50.70 C 67.06 45.97 66.11 41.19 64.70 36.52 C 64.34 34.17 60.79 33.57 59.75 35.73 C 57.36 39.82 55.51 44.21 53.24 48.38 C 50.62 48.37 47.98 48.15 45.38 48.51 C 42.85 49.06 42.62 52.96 45.12 53.72 C 48.90 54.03 52.80 54.25 56.54 53.56 C 58.67 51.13 59.60 47.92 61.13 45.12 C 62.55 50.09 63.37 55.22 64.97 60.14 C 65.58 62.10 68.60 62.52 69.66 60.72 C 71.98 56.87 73.50 52.60 75.71 48.68 C 85.15 48.88 94.60 48.63 104.04 48.79 C 107.16 48.62 108.06 53.44 104.94 54.25 C 101.48 54.63 97.99 54.34 94.51 54.40 C 93.37 60.21 90.65 65.63 86.61 69.96 C 88.18 75.64 90.12 81.24 91.36 87.01 C 90.88 89.32 88.36 89.66 86.49 90.26 C 77.36 92.76 68.29 95.48 59.17 98.00 L 55.67 98.00 C 54.08 94.76 53.32 91.21 52.29 87.78 C 48.23 87.74 44.15 87.98 40.09 87.71 C 37.73 87.54 35.64 85.35 35.58 82.98 C 35.37 78.19 35.57 73.39 35.58 68.60 C 33.40 67.63 30.00 67.56 29.09 64.97 C 30.57 58.42 35.66 52.95 35.76 46.03 C 36.31 39.57 39.32 33.42 43.79 28.76 Z" />
<path fill="#9f45ff" opacity="1.00" d=" M 119.32 64.31 C 122.06 62.67 124.58 67.23 121.74 68.66 C 118.97 70.43 116.40 65.71 119.32 64.31 Z" />
<path fill="#9f45ff" opacity="1.00" d=" M 7.59 80.46 C 8.52 80.46 9.46 80.47 10.40 80.49 C 10.86 80.81 11.79 81.45 12.25 81.77 C 12.59 82.23 13.25 83.16 13.58 83.63 C 13.53 85.26 13.56 87.05 12.43 88.37 C 10.34 89.87 7.69 89.93 5.62 88.36 C 3.50 85.69 4.32 81.70 7.59 80.46 M 7.45 82.49 C 6.98 82.52 6.04 82.58 5.56 82.61 C 5.55 83.59 5.51 85.56 5.50 86.54 C 6.68 88.24 8.66 88.73 10.65 88.70 L 10.54 87.51 C 11.02 87.48 11.97 87.43 12.44 87.40 C 12.46 86.45 12.51 84.54 12.53 83.59 C 11.41 81.79 9.38 81.21 7.35 81.32 L 7.45 82.49 Z" />
</g>
</svg>
