<?xml version="1.0" encoding="UTF-8" ?>
<!DOCTYPE svg PUBLIC "-//W3C//DTD SVG 1.1//EN" "http://www.w3.org/Graphics/SVG/1.1/DTD/svg11.dtd">
<svg width="120pt" height="100pt" viewBox="0 0 120 100" version="1.1" xmlns="http://www.w3.org/2000/svg">
<g id="#fff3e9ff">
<path fill="#fff3e9" opacity="1.00" d=" M 75.25 0.00 L 77.79 0.00 C 90.44 0.35 102.77 6.51 110.58 16.48 C 116.08 23.28 119.17 31.79 120.00 40.46 L 120.00 46.53 C 118.85 62.35 108.61 77.01 94.05 83.34 C 92.45 70.73 83.95 59.38 72.21 54.48 C 74.74 52.14 77.10 49.47 78.21 46.13 C 81.02 38.94 78.54 30.21 72.56 25.38 C 66.26 19.96 56.25 19.68 49.61 24.64 C 43.36 29.10 40.30 37.68 42.68 45.04 C 43.67 48.87 46.34 51.89 49.01 54.67 C 44.65 56.54 40.62 59.15 37.30 62.55 C 31.13 49.56 31.58 33.52 39.18 21.21 C 46.55 8.59 60.65 0.34 75.25 0.00 Z" />
<path fill="#fff3e9" opacity="1.00" d=" M 57.48 28.57 C 64.99 26.17 73.23 33.18 72.22 40.93 C 71.62 47.63 64.49 52.84 57.93 51.02 C 52.19 49.76 48.04 43.69 49.18 37.87 C 49.80 33.49 53.29 29.80 57.48 28.57 Z" />
<path fill="#fff3e9" opacity="1.00" d=" M 10.83 41.73 C 18.65 39.02 27.93 43.86 30.25 51.78 C 33.32 60.38 27.07 70.56 18.05 71.78 C 9.41 73.49 0.62 66.51 0.00 57.79 L 0.00 55.22 C 0.58 49.11 4.90 43.51 10.83 41.73 Z" />
<path fill="#fff3e9" opacity="1.00" d=" M 41.12 68.89 C 47.03 61.75 56.95 57.85 66.08 60.11 C 77.82 62.72 86.26 73.98 87.16 85.71 C 82.68 86.80 78.07 87.09 73.47 86.98 C 75.65 84.57 80.22 82.29 78.45 78.39 C 75.85 75.74 71.60 76.41 68.24 75.57 C 66.37 72.74 65.65 68.96 62.88 66.84 C 58.86 65.35 57.53 70.44 56.12 73.09 C 55.26 76.75 51.00 75.82 48.20 76.54 C 45.57 74.26 43.24 71.65 41.12 68.89 Z" />
</g>
<g id="#ffb679ff">
<path fill="#ffb679" opacity="1.00" d=" M 49.61 24.64 C 56.25 19.68 66.26 19.96 72.56 25.38 C 78.54 30.21 81.02 38.94 78.21 46.13 C 77.10 49.47 74.74 52.14 72.21 54.48 C 83.95 59.38 92.45 70.73 94.05 83.34 C 94.26 85.52 94.63 87.77 94.15 89.95 C 93.06 92.50 89.07 92.73 87.71 90.34 C 87.11 88.88 87.37 87.24 87.16 85.71 C 86.26 73.98 77.82 62.72 66.08 60.11 C 56.95 57.85 47.03 61.75 41.12 68.89 C 36.38 74.46 34.05 81.76 34.01 89.03 C 33.70 92.72 28.58 92.76 26.95 89.94 C 26.71 79.92 30.30 69.80 37.30 62.55 C 40.62 59.15 44.65 56.54 49.01 54.67 C 46.34 51.89 43.67 48.87 42.68 45.04 C 40.30 37.68 43.36 29.10 49.61 24.64 M 57.48 28.57 C 53.29 29.80 49.80 33.49 49.18 37.87 C 48.04 43.69 52.19 49.76 57.93 51.02 C 64.49 52.84 71.62 47.63 72.22 40.93 C 73.23 33.18 64.99 26.17 57.48 28.57 Z" />
</g>
<g id="#ffc000ff">
<path fill="#ffc000" opacity="1.00" d=" M 56.12 73.09 C 57.53 70.44 58.86 65.35 62.88 66.84 C 65.65 68.96 66.37 72.74 68.24 75.57 C 71.60 76.41 75.85 75.74 78.45 78.39 C 80.22 82.29 75.65 84.57 73.47 86.98 C 73.16 87.26 72.53 87.83 72.22 88.11 C 72.15 92.05 75.87 97.62 71.06 100.00 L 69.27 100.00 C 66.57 98.78 64.01 97.28 61.33 96.01 C 58.87 97.43 56.38 98.81 53.79 100.00 L 52.08 100.00 C 47.23 97.93 50.69 91.98 50.73 88.14 C 48.44 85.81 45.72 83.82 43.99 81.02 C 43.50 78.48 45.95 76.76 48.20 76.54 C 51.00 75.82 55.26 76.75 56.12 73.09 Z" />
</g>
</svg>
