<?xml version="1.0" encoding="UTF-8" ?>
<!DOCTYPE svg PUBLIC "-//W3C//DTD SVG 1.1//EN" "http://www.w3.org/Graphics/SVG/1.1/DTD/svg11.dtd">
<svg width="80pt" height="67pt" viewBox="0 0 80 67" version="1.1" xmlns="http://www.w3.org/2000/svg">
<g id="#ffb284ff">
<path fill="#ffb284" opacity="1.00" d=" M 0.48 3.19 C 2.02 -0.87 6.69 0.61 10.00 0.37 C 13.49 0.05 17.15 2.37 17.83 5.91 C 20.73 17.46 23.57 29.02 26.50 40.57 C 39.30 40.58 52.11 40.59 64.92 40.56 C 66.96 32.73 69.16 24.94 71.28 17.13 C 56.08 17.19 40.88 17.13 25.69 17.16 C 25.02 15.00 24.38 12.84 23.78 10.65 C 42.52 10.63 61.26 10.60 80.00 10.67 L 80.00 13.02 L 79.66 11.25 C 76.85 21.87 74.01 32.49 71.01 43.04 C 69.85 47.02 65.32 47.52 61.81 47.47 C 65.15 48.19 68.39 49.98 69.81 53.24 C 72.42 58.54 69.19 65.16 63.73 67.00 L 57.63 67.00 C 53.23 65.39 49.91 60.82 50.67 56.04 C 51.26 51.59 55.03 48.24 59.38 47.56 C 50.19 47.10 40.96 47.30 31.75 47.46 C 35.70 48.29 39.55 50.89 40.31 55.09 C 41.69 60.09 38.37 65.27 33.67 67.00 L 27.56 67.00 C 22.18 65.23 18.70 58.57 21.44 53.34 C 22.73 50.00 26.00 48.25 29.31 47.53 C 25.80 47.52 21.34 46.82 20.22 42.87 C 17.09 31.00 14.33 19.02 11.18 7.15 C 7.34 6.86 2.40 8.56 0.00 4.48 L 0.00 3.03 C 0.12 3.07 0.36 3.15 0.48 3.19 M 28.49 54.63 C 27.29 55.81 26.53 57.72 27.77 59.17 C 29.17 61.89 33.74 60.89 33.89 57.84 C 34.50 54.86 30.83 53.11 28.49 54.63 M 57.68 55.78 C 55.88 58.47 59.67 62.19 62.34 60.33 C 64.06 59.53 63.97 57.64 64.00 56.03 C 62.70 53.78 58.97 53.31 57.68 55.78 Z" />
</g>
</svg>
