<?xml version="1.0" encoding="UTF-8" ?>
<!DOCTYPE svg PUBLIC "-//W3C//DTD SVG 1.1//EN" "http://www.w3.org/Graphics/SVG/1.1/DTD/svg11.dtd">
<svg width="139pt" height="97pt" viewBox="0 0 139 97" version="1.1" xmlns="http://www.w3.org/2000/svg">
<g id="#57c5a4ff">
<path fill="#57c5a4" opacity="1.00" d=" M 66.97 0.00 L 69.14 0.00 C 71.91 0.93 74.05 4.01 72.68 6.91 C 71.38 10.39 66.21 11.20 64.04 8.10 C 61.54 5.28 63.53 0.85 66.97 0.00 M 66.41 2.54 C 63.79 3.93 65.25 8.18 68.05 7.95 C 70.17 8.10 72.02 4.99 70.37 3.34 C 69.58 2.03 67.61 1.47 66.41 2.54 Z" />
<path fill="#57c5a4" opacity="1.00" d=" M 0.00 11.00 C 1.15 6.94 6.20 4.42 9.89 6.92 C 14.06 9.17 14.05 15.81 9.90 18.07 C 6.21 20.60 1.16 18.05 0.00 13.99 L 0.00 11.00 Z" />
<path fill="#57c5a4" opacity="1.00" d=" M 133.83 19.78 C 135.77 18.83 137.66 19.69 139.00 21.25 L 139.00 22.73 C 137.59 24.45 135.59 24.73 133.53 24.51 C 133.53 22.93 133.37 21.32 133.83 19.78 M 134.81 22.00 C 135.11 22.30 135.70 22.88 136.00 23.18 C 136.30 22.88 136.90 22.30 137.19 22.00 C 136.90 21.71 136.30 21.12 136.00 20.83 C 135.70 21.12 135.11 21.71 134.81 22.00 Z" />
<path fill="#57c5a4" opacity="1.00" d=" M 41.34 31.37 C 50.54 20.50 67.01 17.04 79.91 22.90 C 89.69 27.18 97.11 36.44 99.08 46.94 C 100.78 55.59 98.94 64.83 93.95 72.11 C 98.63 75.73 103.46 79.17 108.02 82.94 C 111.16 85.38 109.61 89.75 110.07 93.14 C 108.84 94.49 107.57 95.81 106.17 97.00 L 98.50 97.00 C 92.87 92.74 89.09 86.56 84.25 81.48 C 71.19 90.11 52.29 87.72 41.89 75.99 C 30.41 64.10 30.14 43.52 41.34 31.37 M 59.55 27.80 C 47.70 30.79 38.95 42.77 39.99 55.00 C 40.48 67.97 51.94 79.43 64.95 79.74 C 74.04 80.42 83.17 75.77 88.23 68.25 C 93.53 60.65 94.29 50.19 90.20 41.88 C 85.00 30.69 71.46 24.42 59.55 27.80 Z" />
<path fill="#57c5a4" opacity="1.00" d=" M 72.30 38.25 C 72.99 36.41 76.21 36.05 76.95 38.04 C 78.78 42.07 79.85 46.41 81.36 50.57 C 83.60 50.89 86.54 49.83 88.14 51.87 C 89.60 53.43 88.02 56.02 86.06 56.05 C 83.27 56.10 80.14 56.75 77.56 55.41 C 76.06 53.08 75.76 50.19 74.70 47.64 C 72.04 54.56 70.07 61.72 67.43 68.63 C 66.44 70.74 62.86 70.28 62.45 67.96 C 60.65 62.61 58.92 57.22 57.45 51.76 C 56.33 52.52 56.02 53.84 55.66 55.05 C 53.07 56.78 49.79 56.12 46.86 56.10 C 44.79 56.16 43.03 53.29 44.72 51.69 C 46.54 49.90 49.36 50.85 51.64 50.60 C 53.08 48.06 54.21 45.30 55.99 42.97 C 57.39 41.56 60.08 42.46 60.40 44.40 C 62.05 49.22 63.52 54.10 64.96 59.00 C 68.00 52.33 69.56 45.05 72.30 38.25 Z" />
<path fill="#57c5a4" opacity="1.00" d=" M 119.37 64.33 C 122.05 62.72 124.51 67.21 121.77 68.61 C 119.00 70.49 116.40 65.63 119.37 64.33 Z" />
<path fill="#57c5a4" opacity="1.00" d=" M 5.54 75.57 C 7.70 74.17 10.28 74.14 12.45 75.52 C 13.82 77.70 13.86 80.28 12.46 82.46 C 10.29 83.83 7.71 83.88 5.54 82.50 C 4.22 80.31 4.11 77.73 5.54 75.57 M 5.43 80.15 C 5.85 80.73 6.69 81.87 7.11 82.45 C 9.26 82.66 11.35 82.40 12.53 80.38 C 12.53 79.70 12.54 78.34 12.55 77.65 C 11.40 75.86 9.53 75.28 7.46 75.34 C 6.20 76.69 5.30 78.23 5.43 80.15 Z" />
</g>
</svg>
