<svg width="21" height="19" viewBox="0 0 21 19" fill="none" xmlns="http://www.w3.org/2000/svg">
<path d="M8.91703 0.282164C9.9568 -0.293749 11.2548 0.0408933 11.8927 1.0224L11.9755 1.16023L19.7344 15.1685C19.9192 15.5021 20.0162 15.8773 20.0162 16.2587C20.0162 17.4495 19.091 18.4243 17.9202 18.5035L17.7662 18.5087H2.25041C1.8691 18.5087 1.49405 18.4118 1.16046 18.2271C0.120624 17.6513 -0.284417 16.3734 0.209138 15.312L0.282035 15.1687L8.03883 1.16046C8.24336 0.791099 8.54769 0.486735 8.91703 0.282164ZM10.009 13.5018C9.45744 13.5018 9.01032 13.9489 9.01032 14.5004C9.01032 15.052 9.45744 15.4991 10.009 15.4991C10.5605 15.4991 11.0076 15.052 11.0076 14.5004C11.0076 13.9489 10.5605 13.5018 10.009 13.5018ZM10.0068 5.49806C9.49399 5.49825 9.07145 5.88444 9.01387 6.3818L9.00718 6.49842L9.00898 11.4993L9.01575 11.6159C9.0737 12.1132 9.49651 12.4991 10.0093 12.4989C10.5222 12.4988 10.9447 12.1126 11.0023 11.6152L11.009 11.4986L11.0072 6.4977L11.0004 6.38108C10.9425 5.88376 10.5197 5.49788 10.0068 5.49806Z" fill="#FFDB44"/>
</svg>
